<?xml version="1.0" encoding="utf-8" standalone="no"?>
<!DOCTYPE svg PUBLIC "-//W3C//DTD SVG 1.1//EN"
  "http://www.w3.org/Graphics/SVG/1.1/DTD/svg11.dtd">
<!-- Created with matplotlib (http://matplotlib.org/) -->
<svg height="617pt" version="1.1" viewBox="0 0 1308 617" width="1308pt" xmlns="http://www.w3.org/2000/svg" xmlns:xlink="http://www.w3.org/1999/xlink">
 <defs>
  <style type="text/css">
*{stroke-linecap:butt;stroke-linejoin:round;}
  </style>
 </defs>
 <g id="figure_1">
  <g id="patch_1">
   <path d="M 0 617.04 
L 1308.24 617.04 
L 1308.24 0 
L 0 0 
z
" style="fill:#ffffff;"/>
  </g>
  <g id="axes_1">
   <g id="patch_2">
    <path d="M 95.506063 567.262583 
L 1255.09275 567.262583 
L 1255.09275 26.35275 
L 95.506063 26.35275 
z
" style="fill:#ffffff;"/>
   </g>
   <g id="matplotlib.axis_1">
    <g id="xtick_1">
     <g id="line2d_1">
      <path clip-path="url(#p9d5af6cb3f)" d="M 129.249896 567.262583 
L 129.249896 26.35275 
" style="fill:none;stroke:#808080;stroke-linecap:square;stroke-width:0.8;"/>
     </g>
     <g id="line2d_2">
      <defs>
       <path d="M 0 0 
L 0 3.5 
" id="m86b8561b6c" style="stroke:#000000;stroke-width:0.8;"/>
      </defs>
      <g>
       <use style="stroke:#000000;stroke-width:0.8;" x="129.249896" xlink:href="#m86b8561b6c" y="567.262583"/>
      </g>
     </g>
     <g id="text_1">
      <!-- 280 -->
      <defs>
       <path d="M 19.1875 8.296875 
L 53.609375 8.296875 
L 53.609375 0 
L 7.328125 0 
L 7.328125 8.296875 
Q 12.9375 14.109375 22.625 23.890625 
Q 32.328125 33.6875 34.8125 36.53125 
Q 39.546875 41.84375 41.421875 45.53125 
Q 43.3125 49.21875 43.3125 52.78125 
Q 43.3125 58.59375 39.234375 62.25 
Q 35.15625 65.921875 28.609375 65.921875 
Q 23.96875 65.921875 18.8125 64.3125 
Q 13.671875 62.703125 7.8125 59.421875 
L 7.8125 69.390625 
Q 13.765625 71.78125 18.9375 73 
Q 24.125 74.21875 28.421875 74.21875 
Q 39.75 74.21875 46.484375 68.546875 
Q 53.21875 62.890625 53.21875 53.421875 
Q 53.21875 48.921875 51.53125 44.890625 
Q 49.859375 40.875 45.40625 35.40625 
Q 44.1875 33.984375 37.640625 27.21875 
Q 31.109375 20.453125 19.1875 8.296875 
z
" id="DejaVuSans-32"/>
       <path d="M 31.78125 34.625 
Q 24.75 34.625 20.71875 30.859375 
Q 16.703125 27.09375 16.703125 20.515625 
Q 16.703125 13.921875 20.71875 10.15625 
Q 24.75 6.390625 31.78125 6.390625 
Q 38.8125 6.390625 42.859375 10.171875 
Q 46.921875 13.96875 46.921875 20.515625 
Q 46.921875 27.09375 42.890625 30.859375 
Q 38.875 34.625 31.78125 34.625 
z
M 21.921875 38.8125 
Q 15.578125 40.375 12.03125 44.71875 
Q 8.5 49.078125 8.5 55.328125 
Q 8.5 64.0625 14.71875 69.140625 
Q 20.953125 74.21875 31.78125 74.21875 
Q 42.671875 74.21875 48.875 69.140625 
Q 55.078125 64.0625 55.078125 55.328125 
Q 55.078125 49.078125 51.53125 44.71875 
Q 48 40.375 41.703125 38.8125 
Q 48.828125 37.15625 52.796875 32.3125 
Q 56.78125 27.484375 56.78125 20.515625 
Q 56.78125 9.90625 50.3125 4.234375 
Q 43.84375 -1.421875 31.78125 -1.421875 
Q 19.734375 -1.421875 13.25 4.234375 
Q 6.78125 9.90625 6.78125 20.515625 
Q 6.78125 27.484375 10.78125 32.3125 
Q 14.796875 37.15625 21.921875 38.8125 
z
M 18.3125 54.390625 
Q 18.3125 48.734375 21.84375 45.5625 
Q 25.390625 42.390625 31.78125 42.390625 
Q 38.140625 42.390625 41.71875 45.5625 
Q 45.3125 48.734375 45.3125 54.390625 
Q 45.3125 60.0625 41.71875 63.234375 
Q 38.140625 66.40625 31.78125 66.40625 
Q 25.390625 66.40625 21.84375 63.234375 
Q 18.3125 60.0625 18.3125 54.390625 
z
" id="DejaVuSans-38"/>
       <path d="M 31.78125 66.40625 
Q 24.171875 66.40625 20.328125 58.90625 
Q 16.5 51.421875 16.5 36.375 
Q 16.5 21.390625 20.328125 13.890625 
Q 24.171875 6.390625 31.78125 6.390625 
Q 39.453125 6.390625 43.28125 13.890625 
Q 47.125 21.390625 47.125 36.375 
Q 47.125 51.421875 43.28125 58.90625 
Q 39.453125 66.40625 31.78125 66.40625 
z
M 31.78125 74.21875 
Q 44.046875 74.21875 50.515625 64.515625 
Q 56.984375 54.828125 56.984375 36.375 
Q 56.984375 17.96875 50.515625 8.265625 
Q 44.046875 -1.421875 31.78125 -1.421875 
Q 19.53125 -1.421875 13.0625 8.265625 
Q 6.59375 17.96875 6.59375 36.375 
Q 6.59375 54.828125 13.0625 64.515625 
Q 19.53125 74.21875 31.78125 74.21875 
z
" id="DejaVuSans-30"/>
      </defs>
      <g transform="translate(119.706146 581.861021)scale(0.1 -0.1)">
       <use xlink:href="#DejaVuSans-32"/>
       <use x="63.623047" xlink:href="#DejaVuSans-38"/>
       <use x="127.246094" xlink:href="#DejaVuSans-30"/>
      </g>
     </g>
    </g>
    <g id="xtick_2">
     <g id="line2d_3">
      <path clip-path="url(#p9d5af6cb3f)" d="M 358.146427 567.262583 
L 358.146427 26.35275 
" style="fill:none;stroke:#808080;stroke-linecap:square;stroke-width:0.8;"/>
     </g>
     <g id="line2d_4">
      <g>
       <use style="stroke:#000000;stroke-width:0.8;" x="358.146427" xlink:href="#m86b8561b6c" y="567.262583"/>
      </g>
     </g>
     <g id="text_2">
      <!-- 290 -->
      <defs>
       <path d="M 10.984375 1.515625 
L 10.984375 10.5 
Q 14.703125 8.734375 18.5 7.8125 
Q 22.3125 6.890625 25.984375 6.890625 
Q 35.75 6.890625 40.890625 13.453125 
Q 46.046875 20.015625 46.78125 33.40625 
Q 43.953125 29.203125 39.59375 26.953125 
Q 35.25 24.703125 29.984375 24.703125 
Q 19.046875 24.703125 12.671875 31.3125 
Q 6.296875 37.9375 6.296875 49.421875 
Q 6.296875 60.640625 12.9375 67.421875 
Q 19.578125 74.21875 30.609375 74.21875 
Q 43.265625 74.21875 49.921875 64.515625 
Q 56.59375 54.828125 56.59375 36.375 
Q 56.59375 19.140625 48.40625 8.859375 
Q 40.234375 -1.421875 26.421875 -1.421875 
Q 22.703125 -1.421875 18.890625 -0.6875 
Q 15.09375 0.046875 10.984375 1.515625 
z
M 30.609375 32.421875 
Q 37.25 32.421875 41.125 36.953125 
Q 45.015625 41.5 45.015625 49.421875 
Q 45.015625 57.28125 41.125 61.84375 
Q 37.25 66.40625 30.609375 66.40625 
Q 23.96875 66.40625 20.09375 61.84375 
Q 16.21875 57.28125 16.21875 49.421875 
Q 16.21875 41.5 20.09375 36.953125 
Q 23.96875 32.421875 30.609375 32.421875 
z
" id="DejaVuSans-39"/>
      </defs>
      <g transform="translate(348.602677 581.861021)scale(0.1 -0.1)">
       <use xlink:href="#DejaVuSans-32"/>
       <use x="63.623047" xlink:href="#DejaVuSans-39"/>
       <use x="127.246094" xlink:href="#DejaVuSans-30"/>
      </g>
     </g>
    </g>
    <g id="xtick_3">
     <g id="line2d_5">
      <path clip-path="url(#p9d5af6cb3f)" d="M 587.042957 567.262583 
L 587.042957 26.35275 
" style="fill:none;stroke:#808080;stroke-linecap:square;stroke-width:0.8;"/>
     </g>
     <g id="line2d_6">
      <g>
       <use style="stroke:#000000;stroke-width:0.8;" x="587.042957" xlink:href="#m86b8561b6c" y="567.262583"/>
      </g>
     </g>
     <g id="text_3">
      <!-- 300 -->
      <defs>
       <path d="M 40.578125 39.3125 
Q 47.65625 37.796875 51.625 33 
Q 55.609375 28.21875 55.609375 21.1875 
Q 55.609375 10.40625 48.1875 4.484375 
Q 40.765625 -1.421875 27.09375 -1.421875 
Q 22.515625 -1.421875 17.65625 -0.515625 
Q 12.796875 0.390625 7.625 2.203125 
L 7.625 11.71875 
Q 11.71875 9.328125 16.59375 8.109375 
Q 21.484375 6.890625 26.8125 6.890625 
Q 36.078125 6.890625 40.9375 10.546875 
Q 45.796875 14.203125 45.796875 21.1875 
Q 45.796875 27.640625 41.28125 31.265625 
Q 36.765625 34.90625 28.71875 34.90625 
L 20.21875 34.90625 
L 20.21875 43.015625 
L 29.109375 43.015625 
Q 36.375 43.015625 40.234375 45.921875 
Q 44.09375 48.828125 44.09375 54.296875 
Q 44.09375 59.90625 40.109375 62.90625 
Q 36.140625 65.921875 28.71875 65.921875 
Q 24.65625 65.921875 20.015625 65.03125 
Q 15.375 64.15625 9.8125 62.3125 
L 9.8125 71.09375 
Q 15.4375 72.65625 20.34375 73.4375 
Q 25.25 74.21875 29.59375 74.21875 
Q 40.828125 74.21875 47.359375 69.109375 
Q 53.90625 64.015625 53.90625 55.328125 
Q 53.90625 49.265625 50.4375 45.09375 
Q 46.96875 40.921875 40.578125 39.3125 
z
" id="DejaVuSans-33"/>
      </defs>
      <g transform="translate(577.499207 581.861021)scale(0.1 -0.1)">
       <use xlink:href="#DejaVuSans-33"/>
       <use x="63.623047" xlink:href="#DejaVuSans-30"/>
       <use x="127.246094" xlink:href="#DejaVuSans-30"/>
      </g>
     </g>
    </g>
    <g id="xtick_4">
     <g id="line2d_7">
      <path clip-path="url(#p9d5af6cb3f)" d="M 815.939488 567.262583 
L 815.939488 26.35275 
" style="fill:none;stroke:#808080;stroke-linecap:square;stroke-width:0.8;"/>
     </g>
     <g id="line2d_8">
      <g>
       <use style="stroke:#000000;stroke-width:0.8;" x="815.939488" xlink:href="#m86b8561b6c" y="567.262583"/>
      </g>
     </g>
     <g id="text_4">
      <!-- 310 -->
      <defs>
       <path d="M 12.40625 8.296875 
L 28.515625 8.296875 
L 28.515625 63.921875 
L 10.984375 60.40625 
L 10.984375 69.390625 
L 28.421875 72.90625 
L 38.28125 72.90625 
L 38.28125 8.296875 
L 54.390625 8.296875 
L 54.390625 0 
L 12.40625 0 
z
" id="DejaVuSans-31"/>
      </defs>
      <g transform="translate(806.395738 581.861021)scale(0.1 -0.1)">
       <use xlink:href="#DejaVuSans-33"/>
       <use x="63.623047" xlink:href="#DejaVuSans-31"/>
       <use x="127.246094" xlink:href="#DejaVuSans-30"/>
      </g>
     </g>
    </g>
    <g id="xtick_5">
     <g id="line2d_9">
      <path clip-path="url(#p9d5af6cb3f)" d="M 1044.836018 567.262583 
L 1044.836018 26.35275 
" style="fill:none;stroke:#808080;stroke-linecap:square;stroke-width:0.8;"/>
     </g>
     <g id="line2d_10">
      <g>
       <use style="stroke:#000000;stroke-width:0.8;" x="1044.836018" xlink:href="#m86b8561b6c" y="567.262583"/>
      </g>
     </g>
     <g id="text_5">
      <!-- 320 -->
      <g transform="translate(1035.292268 581.861021)scale(0.1 -0.1)">
       <use xlink:href="#DejaVuSans-33"/>
       <use x="63.623047" xlink:href="#DejaVuSans-32"/>
       <use x="127.246094" xlink:href="#DejaVuSans-30"/>
      </g>
     </g>
    </g>
   </g>
   <g id="matplotlib.axis_2">
    <g id="ytick_1">
     <g id="line2d_11">
      <path clip-path="url(#p9d5af6cb3f)" d="M 95.506063 567.262583 
L 1255.09275 567.262583 
" style="fill:none;stroke:#808080;stroke-linecap:square;stroke-width:0.8;"/>
     </g>
     <g id="line2d_12">
      <defs>
       <path d="M 0 0 
L -3.5 0 
" id="m942140c86c" style="stroke:#000000;stroke-width:0.8;"/>
      </defs>
      <g>
       <use style="stroke:#000000;stroke-width:0.8;" x="95.506063" xlink:href="#m942140c86c" y="567.262583"/>
      </g>
     </g>
     <g id="text_6">
      <!-- 0 -->
      <g transform="translate(82.143563 571.061802)scale(0.1 -0.1)">
       <use xlink:href="#DejaVuSans-30"/>
      </g>
     </g>
    </g>
    <g id="ytick_2">
     <g id="line2d_13">
      <path clip-path="url(#p9d5af6cb3f)" d="M 95.506063 499.766971 
L 1255.09275 499.766971 
" style="fill:none;stroke:#808080;stroke-linecap:square;stroke-width:0.8;"/>
     </g>
     <g id="line2d_14">
      <g>
       <use style="stroke:#000000;stroke-width:0.8;" x="95.506063" xlink:href="#m942140c86c" y="499.766971"/>
      </g>
     </g>
     <g id="text_7">
      <!-- 2500 -->
      <defs>
       <path d="M 10.796875 72.90625 
L 49.515625 72.90625 
L 49.515625 64.59375 
L 19.828125 64.59375 
L 19.828125 46.734375 
Q 21.96875 47.46875 24.109375 47.828125 
Q 26.265625 48.1875 28.421875 48.1875 
Q 40.625 48.1875 47.75 41.5 
Q 54.890625 34.8125 54.890625 23.390625 
Q 54.890625 11.625 47.5625 5.09375 
Q 40.234375 -1.421875 26.90625 -1.421875 
Q 22.3125 -1.421875 17.546875 -0.640625 
Q 12.796875 0.140625 7.71875 1.703125 
L 7.71875 11.625 
Q 12.109375 9.234375 16.796875 8.0625 
Q 21.484375 6.890625 26.703125 6.890625 
Q 35.15625 6.890625 40.078125 11.328125 
Q 45.015625 15.765625 45.015625 23.390625 
Q 45.015625 31 40.078125 35.4375 
Q 35.15625 39.890625 26.703125 39.890625 
Q 22.75 39.890625 18.8125 39.015625 
Q 14.890625 38.140625 10.796875 36.28125 
z
" id="DejaVuSans-35"/>
      </defs>
      <g transform="translate(63.056063 503.56619)scale(0.1 -0.1)">
       <use xlink:href="#DejaVuSans-32"/>
       <use x="63.623047" xlink:href="#DejaVuSans-35"/>
       <use x="127.246094" xlink:href="#DejaVuSans-30"/>
       <use x="190.869141" xlink:href="#DejaVuSans-30"/>
      </g>
     </g>
    </g>
    <g id="ytick_3">
     <g id="line2d_15">
      <path clip-path="url(#p9d5af6cb3f)" d="M 95.506063 432.27136 
L 1255.09275 432.27136 
" style="fill:none;stroke:#808080;stroke-linecap:square;stroke-width:0.8;"/>
     </g>
     <g id="line2d_16">
      <g>
       <use style="stroke:#000000;stroke-width:0.8;" x="95.506063" xlink:href="#m942140c86c" y="432.27136"/>
      </g>
     </g>
     <g id="text_8">
      <!-- 5000 -->
      <g transform="translate(63.056063 436.070578)scale(0.1 -0.1)">
       <use xlink:href="#DejaVuSans-35"/>
       <use x="63.623047" xlink:href="#DejaVuSans-30"/>
       <use x="127.246094" xlink:href="#DejaVuSans-30"/>
       <use x="190.869141" xlink:href="#DejaVuSans-30"/>
      </g>
     </g>
    </g>
    <g id="ytick_4">
     <g id="line2d_17">
      <path clip-path="url(#p9d5af6cb3f)" d="M 95.506063 364.775748 
L 1255.09275 364.775748 
" style="fill:none;stroke:#808080;stroke-linecap:square;stroke-width:0.8;"/>
     </g>
     <g id="line2d_18">
      <g>
       <use style="stroke:#000000;stroke-width:0.8;" x="95.506063" xlink:href="#m942140c86c" y="364.775748"/>
      </g>
     </g>
     <g id="text_9">
      <!-- 7500 -->
      <defs>
       <path d="M 8.203125 72.90625 
L 55.078125 72.90625 
L 55.078125 68.703125 
L 28.609375 0 
L 18.3125 0 
L 43.21875 64.59375 
L 8.203125 64.59375 
z
" id="DejaVuSans-37"/>
      </defs>
      <g transform="translate(63.056063 368.574967)scale(0.1 -0.1)">
       <use xlink:href="#DejaVuSans-37"/>
       <use x="63.623047" xlink:href="#DejaVuSans-35"/>
       <use x="127.246094" xlink:href="#DejaVuSans-30"/>
       <use x="190.869141" xlink:href="#DejaVuSans-30"/>
      </g>
     </g>
    </g>
    <g id="ytick_5">
     <g id="line2d_19">
      <path clip-path="url(#p9d5af6cb3f)" d="M 95.506063 297.280136 
L 1255.09275 297.280136 
" style="fill:none;stroke:#808080;stroke-linecap:square;stroke-width:0.8;"/>
     </g>
     <g id="line2d_20">
      <g>
       <use style="stroke:#000000;stroke-width:0.8;" x="95.506063" xlink:href="#m942140c86c" y="297.280136"/>
      </g>
     </g>
     <g id="text_10">
      <!-- 10000 -->
      <g transform="translate(56.693563 301.079355)scale(0.1 -0.1)">
       <use xlink:href="#DejaVuSans-31"/>
       <use x="63.623047" xlink:href="#DejaVuSans-30"/>
       <use x="127.246094" xlink:href="#DejaVuSans-30"/>
       <use x="190.869141" xlink:href="#DejaVuSans-30"/>
       <use x="254.492188" xlink:href="#DejaVuSans-30"/>
      </g>
     </g>
    </g>
    <g id="ytick_6">
     <g id="line2d_21">
      <path clip-path="url(#p9d5af6cb3f)" d="M 95.506063 229.784524 
L 1255.09275 229.784524 
" style="fill:none;stroke:#808080;stroke-linecap:square;stroke-width:0.8;"/>
     </g>
     <g id="line2d_22">
      <g>
       <use style="stroke:#000000;stroke-width:0.8;" x="95.506063" xlink:href="#m942140c86c" y="229.784524"/>
      </g>
     </g>
     <g id="text_11">
      <!-- 12500 -->
      <g transform="translate(56.693563 233.583743)scale(0.1 -0.1)">
       <use xlink:href="#DejaVuSans-31"/>
       <use x="63.623047" xlink:href="#DejaVuSans-32"/>
       <use x="127.246094" xlink:href="#DejaVuSans-35"/>
       <use x="190.869141" xlink:href="#DejaVuSans-30"/>
       <use x="254.492188" xlink:href="#DejaVuSans-30"/>
      </g>
     </g>
    </g>
    <g id="ytick_7">
     <g id="line2d_23">
      <path clip-path="url(#p9d5af6cb3f)" d="M 95.506063 162.288912 
L 1255.09275 162.288912 
" style="fill:none;stroke:#808080;stroke-linecap:square;stroke-width:0.8;"/>
     </g>
     <g id="line2d_24">
      <g>
       <use style="stroke:#000000;stroke-width:0.8;" x="95.506063" xlink:href="#m942140c86c" y="162.288912"/>
      </g>
     </g>
     <g id="text_12">
      <!-- 15000 -->
      <g transform="translate(56.693563 166.088131)scale(0.1 -0.1)">
       <use xlink:href="#DejaVuSans-31"/>
       <use x="63.623047" xlink:href="#DejaVuSans-35"/>
       <use x="127.246094" xlink:href="#DejaVuSans-30"/>
       <use x="190.869141" xlink:href="#DejaVuSans-30"/>
       <use x="254.492188" xlink:href="#DejaVuSans-30"/>
      </g>
     </g>
    </g>
    <g id="ytick_8">
     <g id="line2d_25">
      <path clip-path="url(#p9d5af6cb3f)" d="M 95.506063 94.7933 
L 1255.09275 94.7933 
" style="fill:none;stroke:#808080;stroke-linecap:square;stroke-width:0.8;"/>
     </g>
     <g id="line2d_26">
      <g>
       <use style="stroke:#000000;stroke-width:0.8;" x="95.506063" xlink:href="#m942140c86c" y="94.7933"/>
      </g>
     </g>
     <g id="text_13">
      <!-- 17500 -->
      <g transform="translate(56.693563 98.592519)scale(0.1 -0.1)">
       <use xlink:href="#DejaVuSans-31"/>
       <use x="63.623047" xlink:href="#DejaVuSans-37"/>
       <use x="127.246094" xlink:href="#DejaVuSans-35"/>
       <use x="190.869141" xlink:href="#DejaVuSans-30"/>
       <use x="254.492188" xlink:href="#DejaVuSans-30"/>
      </g>
     </g>
    </g>
    <g id="ytick_9">
     <g id="line2d_27">
      <path clip-path="url(#p9d5af6cb3f)" d="M 95.506063 27.297689 
L 1255.09275 27.297689 
" style="fill:none;stroke:#808080;stroke-linecap:square;stroke-width:0.8;"/>
     </g>
     <g id="line2d_28">
      <g>
       <use style="stroke:#000000;stroke-width:0.8;" x="95.506063" xlink:href="#m942140c86c" y="27.297689"/>
      </g>
     </g>
     <g id="text_14">
      <!-- 20000 -->
      <g transform="translate(56.693563 31.096907)scale(0.1 -0.1)">
       <use xlink:href="#DejaVuSans-32"/>
       <use x="63.623047" xlink:href="#DejaVuSans-30"/>
       <use x="127.246094" xlink:href="#DejaVuSans-30"/>
       <use x="190.869141" xlink:href="#DejaVuSans-30"/>
       <use x="254.492188" xlink:href="#DejaVuSans-30"/>
      </g>
     </g>
    </g>
   </g>
   <g id="line2d_29">
    <path clip-path="url(#p9d5af6cb3f)" d="M 88.129667 566.932665 
L 1255.091997 566.933205 
L 1255.091997 566.933205 
" style="fill:none;stroke:#ff0000;stroke-linecap:square;"/>
   </g>
   <g id="line2d_30">
    <path clip-path="url(#p9d5af6cb3f)" d="M 88.131157 80.80821 
L 102.32054 81.159187 
L 102.795408 82.968069 
L 102.799851 79.944266 
L 102.802257 80.619222 
L 103.695156 80.619222 
L 103.699506 81.348175 
L 103.69788 79.971264 
L 103.701176 80.403236 
L 104.608477 80.079257 
L 104.609459 78.864336 
L 110.227774 80.80821 
L 111.02582 81.942136 
L 111.034906 78.540357 
L 111.030535 82.212118 
L 111.036325 81.186185 
L 111.943833 81.618157 
L 111.954704 79.296308 
L 111.955507 80.025261 
L 112.859533 81.915138 
L 119.256962 80.835208 
L 120.175385 81.72615 
L 120.181519 79.674283 
L 120.17992 82.941071 
L 120.183167 81.699152 
L 120.63451 82.482101 
L 120.639088 80.133254 
L 120.643209 82.563096 
L 120.645653 80.700217 
L 121.546133 81.780146 
L 121.54801 82.590094 
L 125.672706 80.18725 
L 126.132463 81.159187 
L 126.133429 82.671089 
L 126.137915 79.26931 
L 126.140202 81.213183 
L 126.588815 81.240182 
L 126.589754 78.729345 
L 126.594174 81.402171 
L 127.512619 81.26718 
L 131.620534 78.945331 
L 132.08636 80.052259 
L 132.089083 82.239117 
L 132.091555 79.782276 
L 132.094098 80.349239 
L 132.996133 80.025261 
L 132.997759 81.321176 
L 132.99902 79.350304 
L 133.000504 79.890269 
L 133.904602 80.889204 
L 133.905977 80.241246 
L 139.867721 80.943201 
L 140.326136 81.402171 
L 140.330114 78.594354 
L 140.334398 82.563096 
L 141.241606 81.807145 
L 141.244739 83.454038 
L 141.247489 79.350304 
L 141.249023 82.077127 
L 142.153846 81.780146 
L 142.155222 80.754213 
L 153.148755 81.591159 
L 153.607808 81.26718 
L 153.608769 81.591159 
L 153.61099 79.134318 
L 153.615432 80.214248 
L 154.523164 79.350304 
L 154.52598 81.780146 
L 154.529986 81.186185 
L 155.446903 82.455103 
L 156.349303 80.457232 
L 156.810485 80.592224 
L 156.811424 80.511229 
L 156.812198 81.024196 
L 156.813666 79.161317 
L 156.817787 80.295243 
L 157.725475 81.618157 
L 157.731653 79.917268 
L 157.732613 80.403236 
L 158.63616 80.889204 
L 158.637191 82.428104 
L 165.503147 80.511229 
L 165.964809 82.023131 
L 165.965934 82.80608 
L 165.968586 79.080322 
L 165.972799 81.429169 
L 166.875177 83.373043 
L 168.707909 80.673218 
L 169.622326 80.160252 
L 169.627887 82.617092 
L 169.629328 80.538227 
L 170.539237 79.809275 
L 176.028727 81.132189 
L 176.032574 79.485296 
L 176.037469 82.860076 
L 176.939461 81.051194 
L 176.940699 79.809275 
L 177.853763 79.701282 
L 178.327579 80.052259 
L 178.331541 83.184055 
L 178.335432 79.377303 
L 178.338499 80.835208 
L 179.239617 82.158122 
L 179.242891 80.538227 
L 179.245183 81.294178 
L 180.151611 81.888139 
L 189.311114 79.998262 
L 189.779871 81.537162 
L 189.782179 80.052259 
L 189.793487 82.023131 
L 189.796237 81.186185 
L 190.686713 81.483166 
L 190.689824 81.861141 
L 190.69264 79.944266 
L 191.598315 80.403236 
L 199.386405 80.079257 
L 200.294279 80.997197 
L 200.298307 82.212118 
L 200.299109 79.242311 
L 210.367076 80.025261 
L 210.825621 82.320111 
L 210.831417 80.052259 
L 210.833682 83.670024 
L 211.742238 81.780146 
L 211.744481 82.887074 
L 211.748214 79.971264 
L 211.748994 81.186185 
L 212.661922 82.266115 
L 219.059078 82.158122 
L 219.517214 78.405366 
L 219.519043 81.861141 
L 219.525269 81.240182 
L 220.444495 81.72615 
L 220.450083 80.80821 
L 220.449303 82.34711 
L 220.451158 81.888139 
L 221.359005 80.781211 
L 238.751572 79.593289 
L 239.676751 79.026325 
L 239.699044 83.400041 
L 239.706188 82.482101 
L 240.582606 81.942136 
L 245.159097 80.376238 
L 245.162207 79.404301 
L 245.182601 81.807145 
L 246.073421 81.618157 
L 246.076401 79.998262 
L 246.078022 81.753148 
L 246.07967 80.997197 
L 246.983517 81.780146 
L 246.984663 80.673218 
L 247.90922 81.807145 
L 248.373583 80.376238 
L 248.384869 82.860076 
L 248.388438 80.970199 
L 249.294751 82.131124 
L 249.297933 79.998262 
L 249.302992 83.10306 
L 250.191547 81.834143 
L 257.061509 81.024196 
L 257.978169 81.402171 
L 257.979337 82.509099 
L 257.980232 79.755278 
L 257.98618 82.320111 
L 258.892084 81.807145 
L 258.89394 82.077127 
L 258.894878 80.673218 
L 288.185786 81.132189 
L 288.656256 81.888139 
L 288.663836 80.079257 
L 288.661566 83.130059 
L 288.664546 81.807145 
L 289.113225 81.861141 
L 289.114922 79.10732 
L 289.119386 79.917268 
L 290.026796 79.809275 
L 294.142815 80.430234 
L 295.062477 81.375173 
L 295.065702 82.18512 
L 295.067994 79.431299 
L 295.071678 81.72615 
L 295.973003 80.835208 
L 304.681737 80.106255 
L 305.600139 81.699152 
L 305.605749 82.968069 
L 305.601994 79.755278 
L 305.608106 80.538227 
L 306.51204 80.673218 
L 316.583511 81.024196 
L 317.500313 79.512294 
L 317.502327 81.915138 
L 317.508095 81.56416 
L 318.411298 79.836273 
L 318.412351 80.619222 
L 319.325027 82.374108 
L 320.244023 81.402171 
L 320.245011 83.859011 
L 320.249677 78.567355 
L 320.252035 82.914073 
L 321.264673 82.698087 
L 322.981283 81.672153 
L 323.9112 78.000392 
L 323.931523 82.590094 
L 324.830196 80.052259 
L 324.831178 79.053324 
L 328.933237 81.591159 
L 329.414649 79.755278 
L 329.424996 83.481036 
L 329.427856 81.780146 
L 329.852413 81.888139 
L 329.863835 79.215313 
L 329.862122 82.482101 
L 329.869626 81.10519 
L 338.094798 80.295243 
L 339.012211 82.698087 
L 339.021576 80.052259 
L 339.024507 80.18725 
L 340.049206 81.969134 
L 340.062663 82.914073 
L 340.068454 79.620287 
L 340.836244 80.727215 
L 340.837684 81.213183 
L 341.749149 81.645155 
L 342.211204 80.862206 
L 342.219281 78.675348 
L 342.213305 82.401106 
L 342.220291 81.402171 
L 343.140886 81.375173 
L 343.142534 80.160252 
L 343.145421 82.158122 
L 343.14995 80.943201 
L 344.048645 80.781211 
L 344.050364 80.538227 
L 344.959035 80.889204 
L 345.888083 82.563096 
L 345.889202 82.860076 
L 345.895473 80.052259 
L 345.899844 81.645155 
L 346.794811 82.023131 
L 346.796274 80.754213 
L 355.030211 79.836273 
L 355.495829 80.457232 
L 355.497799 80.214248 
L 355.505832 81.618157 
L 355.512976 81.375173 
L 356.403632 81.942136 
L 356.405166 79.863271 
L 356.40892 81.672153 
L 357.314437 82.34711 
L 357.314939 81.72615 
L 358.230846 80.889204 
L 359.164037 80.997197 
L 359.174242 78.594354 
L 359.172436 82.131124 
L 359.175159 79.701282 
L 360.070716 80.835208 
L 369.451448 80.214248 
L 370.137771 81.996132 
L 370.139649 80.484231 
L 370.142143 80.916203 
L 371.060702 81.10519 
L 371.067365 79.539292 
L 371.069035 82.320111 
L 371.071164 81.942136 
L 371.977362 80.673218 
L 371.978443 81.078192 
L 392.573861 79.890269 
L 393.039097 80.700217 
L 393.042459 78.378368 
L 393.040975 81.078192 
L 393.046056 80.511229 
L 393.978258 78.891334 
L 393.982471 78.675348 
L 393.984392 80.18725 
L 394.875327 79.26931 
L 394.877455 79.56629 
L 396.236939 80.673218 
L 396.238014 82.077127 
L 396.240371 79.701282 
L 396.244792 80.322241 
L 397.150789 79.809275 
L 397.153075 79.053324 
L 397.156874 82.266115 
L 398.061157 81.753148 
L 398.990565 80.673218 
L 399.911417 81.753148 
L 399.919084 82.455103 
L 399.923892 79.242311 
L 400.82208 79.620287 
L 400.823204 79.242311 
L 400.825769 80.511229 
L 400.826593 79.701282 
L 408.594033 82.293113 
L 409.511244 79.701282 
L 409.516074 81.861141 
L 409.518273 81.159187 
L 410.424292 79.809275 
L 410.426742 83.10306 
L 410.428205 81.915138 
L 426.92361 80.700217 
L 427.879159 81.10519 
L 427.881108 80.18725 
L 427.881975 80.268245 
L 440.647538 82.455103 
L 441.584069 81.915138 
L 441.586907 78.324371 
L 441.590247 83.022066 
L 441.594438 79.998262 
L 442.476624 80.64622 
L 446.596949 79.971264 
L 447.059915 80.241246 
L 447.062704 84.047999 
L 447.064352 82.050129 
L 454.385312 82.266115 
L 454.390529 79.377303 
L 454.396483 80.80821 
L 455.296777 78.702347 
L 459.871227 79.377303 
L 460.789219 80.241246 
L 460.792078 82.833078 
L 460.798098 81.024196 
L 461.701006 81.10519 
L 461.702081 81.861141 
L 463.530599 81.969134 
L 473.605202 81.888139 
L 474.064736 81.348175 
L 474.071033 80.025261 
L 474.069565 81.645155 
L 474.071786 80.538227 
L 474.978263 80.511229 
L 474.983208 81.159187 
L 474.981674 79.485296 
L 474.984719 80.700217 
L 475.89536 79.620287 
L 475.896457 81.159187 
L 495.132075 80.80821 
L 495.586479 81.186185 
L 495.587467 80.079257 
L 495.593464 85.370913 
L 496.503718 81.186185 
L 496.507538 71.466817 
L 496.510125 89.744629 
L 496.511751 86.855816 
L 497.447981 81.888139 
L 499.248596 86.315852 
L 524.434427 81.024196 
L 525.355617 81.537162 
L 525.36448 83.535032 
L 525.365276 80.18725 
L 526.292813 79.215313 
L 527.182787 82.320111 
L 528.093177 80.970199 
L 528.09393 79.917268 
L 528.094891 81.915138 
L 528.095556 81.56416 
L 529.002492 82.18512 
L 529.004456 81.402171 
L 533.115351 80.754213 
L 534.031711 79.431299 
L 534.033545 82.725085 
L 534.034347 80.727215 
L 534.945883 80.511229 
L 534.946865 80.943201 
L 547.766854 79.674283 
L 548.225929 81.888139 
L 548.226917 81.591159 
L 548.230666 79.350304 
L 548.23298 83.400041 
L 549.139801 82.320111 
L 550.054175 81.618157 
L 550.981018 81.645155 
L 551.458616 80.673218 
L 551.461431 79.296308 
L 552.374064 80.997197 
L 552.393836 82.80608 
L 552.392352 80.079257 
L 552.394573 81.645155 
L 553.267651 80.916203 
L 555.096557 81.051194 
L 556.011596 80.268245 
L 556.012693 81.348175 
L 568.830832 82.18512 
L 569.748016 82.104125 
L 569.748982 82.64409 
L 569.751313 80.052259 
L 569.756672 81.672153 
L 570.660054 80.484231 
L 570.661844 79.56629 
L 573.867195 81.591159 
L 573.872641 79.971264 
L 573.870928 81.780146 
L 573.878181 80.700217 
L 574.321419 80.457232 
L 574.322472 81.72615 
L 574.325059 80.295243 
L 575.234281 78.945331 
L 577.064103 81.834143 
L 598.598366 80.322241 
L 599.523037 79.755278 
L 599.529837 79.485296 
L 599.531622 82.266115 
L 599.534072 80.943201 
L 600.432445 82.158122 
L 600.433957 80.052259 
L 601.368222 82.482101 
L 602.264074 81.10519 
L 602.267392 79.350304 
L 602.274421 82.428104 
L 603.183894 80.376238 
L 603.18504 81.159187 
L 603.188838 81.024196 
L 606.946339 81.159187 
L 607.765766 79.971264 
L 607.767616 82.482101 
L 607.775196 81.618157 
L 608.676063 80.970199 
L 608.677296 80.268245 
L 615.996172 79.485296 
L 616.444239 80.430234 
L 616.45218 81.888139 
L 616.45385 78.945331 
L 616.455525 80.754213 
L 616.897841 80.484231 
L 616.900842 79.971264 
L 616.901666 82.34711 
L 616.903358 82.131124 
L 617.823522 81.456168 
L 617.824783 80.862206 
L 622.878494 80.862206 
L 623.786074 81.078192 
L 623.788109 83.292048 
L 623.79152 78.891334 
L 623.79832 81.132189 
L 631.100092 79.458297 
L 632.014717 82.725085 
L 632.016321 82.671089 
L 632.018313 79.26931 
L 632.022112 81.213183 
L 632.936349 82.077127 
L 632.938292 80.80821 
L 649.882704 79.188315 
L 650.801541 79.56629 
L 650.805247 82.725085 
L 650.808128 79.458297 
L 650.81381 81.618157 
L 651.712799 81.56416 
L 651.714376 82.779082 
L 652.627975 80.052259 
L 653.54326 80.484231 
L 653.54809 79.404301 
L 653.552145 82.374108 
L 654.454245 81.132189 
L 654.457819 79.539292 
L 659.02673 81.159187 
L 659.028149 80.106255 
L 659.034147 82.80608 
L 659.035817 81.72615 
L 659.959391 81.537162 
L 659.960559 82.482101 
L 667.728872 80.970199 
L 668.652605 81.024196 
L 668.659247 80.052259 
L 668.664142 82.401106 
L 669.561096 81.402171 
L 669.562766 80.079257 
L 682.381456 81.672153 
L 682.837988 80.619222 
L 682.843347 82.482101 
L 682.846938 79.485296 
L 683.756116 81.213183 
L 683.759734 79.836273 
L 683.762889 81.861141 
L 683.763877 80.079257 
L 686.486074 79.917268 
L 687.412694 81.321176 
L 687.422261 77.082452 
L 687.420613 81.72615 
L 687.423085 77.541422 
L 688.335052 79.053324 
L 688.336471 78.945331 
L 695.199273 81.159187 
L 695.200392 78.64835 
L 695.203186 81.618157 
L 695.208588 81.483166 
L 696.102885 80.376238 
L 696.105679 78.783341 
L 696.10909 82.239117 
L 697.017166 82.860076 
L 697.018219 81.483166 
L 699.758295 81.672153 
L 700.221949 82.401106 
L 700.229431 78.702347 
L 700.230167 79.890269 
L 701.132246 81.213183 
L 701.133938 79.782276 
L 701.137649 82.320111 
L 702.063968 81.10519 
L 702.981114 80.727215 
L 703.433002 82.80608 
L 703.439775 78.18938 
L 703.441265 82.023131 
L 704.346432 80.835208 
L 704.349613 76.434494 
L 704.351038 82.80608 
L 704.351769 82.590094 
L 705.258792 80.349239 
L 706.173051 83.616027 
L 706.636748 78.81034 
L 706.637529 79.512294 
L 706.642768 82.293113 
L 707.546614 81.834143 
L 707.548377 79.998262 
L 707.551329 81.942136 
L 708.46751 81.213183 
L 708.468497 81.834143 
L 712.121113 82.050129 
L 712.583572 79.377303 
L 712.592293 81.888139 
L 713.953954 80.835208 
L 713.954985 81.834143 
L 715.791902 80.862206 
L 716.252604 81.645155 
L 716.259513 78.945331 
L 716.255851 82.34711 
L 716.260959 80.133254 
L 717.164276 80.511229 
L 731.363848 81.159187 
L 732.279777 81.456168 
L 732.284148 79.890269 
L 732.288132 80.970199 
L 733.191951 80.511229 
L 737.75654 81.753148 
L 739.028837 79.647285 
L 739.220902 80.349239 
L 739.281036 81.645155 
L 739.308023 79.836273 
L 739.313769 79.917268 
L 739.603526 80.619222 
L 739.604235 81.375173 
L 739.60483 79.755278 
L 739.621791 80.889204 
L 772.565888 79.56629 
L 773.567284 79.863271 
L 773.569325 81.942136 
L 773.568703 79.323306 
L 773.571519 81.780146 
L 773.939173 80.457232 
L 773.939702 82.212118 
L 773.941623 79.350304 
L 773.942518 81.402171 
L 774.695814 81.159187 
L 774.696545 80.862206 
L 784.464201 80.349239 
L 784.923211 80.673218 
L 784.926573 81.348175 
L 784.9309 79.134318 
L 785.972359 80.511229 
L 786.051806 81.456168 
L 786.051075 80.376238 
L 786.052587 80.430234 
L 786.053269 79.512294 
L 786.783704 79.701282 
L 790.86724 81.240182 
L 791.327893 80.349239 
L 791.329563 83.319046 
L 791.335587 79.917268 
L 792.363081 80.241246 
L 792.365187 81.186185 
L 792.388004 80.484231 
L 792.532165 79.458297 
L 793.280106 80.943201 
L 794.064923 80.214248 
L 794.986757 80.376238 
L 794.987057 79.674283 
L 794.988204 81.159187 
L 794.988684 80.700217 
L 795.922513 81.078192 
L 795.926218 79.026325 
L 795.926928 81.132189 
L 795.927386 80.538227 
L 796.816902 81.861141 
L 811.93506 41.066793 
L 812.94282 40.742814 
L 812.943278 42.065728 
L 812.982396 26.35275 
L 813.894549 28.674599 
L 827.038615 93.740369 
L 827.995561 93.87536 
L 827.99817 161.667953 
L 828.931039 161.127988 
L 829.785764 163.638824 
L 830.703019 164.043798 
L 830.707963 173.385191 
L 831.614735 175.464056 
L 831.615013 175.869029 
L 832.525447 177.515922 
L 833.446708 178.78484 
L 833.449775 190.93405 
L 833.450484 189.233161 
L 834.360421 190.178099 
L 834.360623 191.042043 
L 835.291936 192.688936 
L 835.295211 200.086455 
L 836.19706 202.192318 
L 836.197382 203.056262 
L 858.166003 230.783459 
L 859.078931 231.269428 
L 859.079755 230.810457 
L 859.082593 237.371031 
L 859.999531 240.61082 
L 859.999853 241.636754 
L 862.304725 115.068982 
L 863.353714 115.338965 
L 864.117084 115.71694 
L 864.219168 118.686747 
L 864.229013 121.548561 
L 864.659841 122.439503 
L 864.774887 131.024945 
L 865.533356 133.508783 
L 865.54551 132.536847 
L 865.546634 138.503459 
L 865.58937 138.989427 
L 866.018479 139.259409 
L 866.053706 150.112704 
L 866.056478 149.599737 
L 866.397462 149.059772 
L 866.398199 149.167765 
L 866.399798 154.054448 
L 866.400486 153.676472 
L 866.863747 153.70347 
L 897.08624 311.83219 
L 898.041473 313.290095 
L 898.04502 317.879797 
L 898.048431 316.826865 
L 898.912035 319.013723 
L 900.743299 334.7537 
L 901.196398 334.969686 
L 901.196949 337.264536 
L 901.197451 334.645707 
L 901.19839 335.968621 
L 902.136956 338.479457 
L 902.230074 343.015163 
L 902.289608 344.44607 
L 903.139089 346.119961 
L 906.689686 356.622278 
L 907.666136 358.161178 
L 908.565655 358.674144 
L 909.55492 360.780008 
L 909.557758 368.339516 
L 909.558009 121.980533 
L 909.558265 101.947835 
L 909.558582 102.433804 
L 910.380367 100.732914 
L 914.478278 84.128994 
L 914.93678 83.157057 
L 914.937741 82.293113 
L 914.938521 84.398976 
L 914.943831 82.34711 
L 915.945025 82.104125 
L 915.972743 79.134318 
L 915.976798 80.295243 
L 917.218261 80.18725 
L 920.897203 93.497385 
L 921.346936 94.604313 
L 921.352589 102.919772 
L 921.35486 98.897034 
L 925.468401 99.194014 
L 925.469525 105.619597 
L 929.579432 118.605752 
L 930.660646 119.145717 
L 930.671425 117.201844 
L 930.686651 119.334705 
L 930.7669 119.037724 
L 930.768778 120.981598 
L 930.951598 120.33364 
L 930.978743 123.492435 
L 931.019487 123.24945 
L 931.066824 124.248385 
L 931.067233 124.437373 
L 931.073302 123.141457 
L 931.073804 124.221387 
L 932.332894 125.895278 
L 932.333675 129.162066 
L 932.335274 128.109134 
L 957.591307 184.724454 
L 957.606413 195.334764 
L 958.439233 194.902792 
L 958.439528 194.362827 
L 958.45388 198.061587 
L 958.501283 196.900662 
L 959.351958 196.306701 
L 959.353443 195.84773 
L 963.930802 100.138953 
L 964.885554 99.463997 
L 964.962437 93.929357 
L 964.983911 94.928292 
L 965.767058 94.307332 
L 965.767468 93.092411 
L 973.989524 88.664699 
L 975.030016 87.692762 
L 975.241334 87.935746 
L 975.256053 80.565225 
L 975.258912 81.321176 
L 975.814238 78.567355 
L 975.815684 76.731475 
L 977.196315 74.895594 
L 977.726052 74.625612 
L 977.728687 72.735734 
L 977.75867 75.975524 
L 977.769885 75.354564 
L 978.586589 74.139643 
L 978.587069 73.356694 
L 978.587871 75.192575 
L 978.591097 75.057584 
L 979.028244 75.489555 
L 979.028544 74.814599 
L 1013.475248 138.989427 
L 1013.47795 141.473266 
L 1013.680618 141.230281 
L 1013.702202 280.811207 
L 1013.703692 280.541224 
L 1014.334001 281.432166 
L 1014.340042 280.703214 
L 1014.38912 283.997 
L 1015.193005 285.346912 
L 1015.279296 284.941938 
L 1015.284218 290.125601 
L 1015.285064 289.558638 
L 1016.115963 290.044606 
L 1049.074794 275.141575 
L 1049.537122 272.738731 
L 1049.548151 257.403728 
L 1049.549663 257.53872 
L 1050.446273 253.758965 
L 1050.446688 254.406923 
L 1050.44845 240.583822 
L 1050.960854 238.261973 
L 1050.975966 211.911686 
L 1051.006821 218.634249 
L 1051.841333 216.906361 
L 1051.941131 211.992681 
L 1052.757491 212.532646 
L 1063.724835 203.812213 
L 1064.683822 205.000135 
L 1064.727519 200.788409 
L 1093.023044 184.589462 
L 1094.027622 182.240615 
L 1094.120582 170.604372 
L 1094.854537 170.037408 
L 1095.78221 165.663693 
L 1096.762639 164.070796 
L 1096.808328 151.948585 
L 1097.653093 150.32869 
L 1097.653415 147.682862 
L 1101.267257 143.012166 
L 1102.73318 141.473266 
L 1102.816039 129.189064 
L 1103.102526 128.838087 
L 1103.103579 124.680357 
L 1108.592954 105.72759 
L 1109.84781 105.025635 
L 1110.004375 105.214623 
L 1110.117882 94.064348 
L 1110.121271 94.199339 
L 1110.123034 210.102804 
L 1110.425385 208.995876 
L 1113.188464 168.525507 
L 1114.468773 164.853746 
L 1114.471791 160.534026 
L 1114.737655 153.487484 
L 1114.844575 130.565975 
L 1148.079688 83.238052 
L 1148.904104 80.295243 
L 1148.968696 79.10732 
L 1148.97829 84.965939 
L 1149.008066 79.971264 
L 1149.79458 81.051194 
L 1149.802542 82.590094 
L 1149.844754 78.972329 
L 1150.719208 79.350304 
L 1150.720556 83.643025 
L 1152.07402 79.350304 
L 1152.074298 81.888139 
L 1153.019708 80.592224 
L 1153.02021 79.998262 
L 1153.02069 82.212118 
L 1153.969265 82.320111 
L 1153.969767 79.836273 
L 1160.32739 103.864711 
L 1161.377591 60.937502 
L 1161.387982 122.088526 
L 1161.390203 45.73749 
L 1161.407186 99.787976 
L 1162.265459 77.487426 
L 1162.266032 60.748514 
L 1162.311147 101.11089 
L 1162.311715 68.49701 
L 1163.096374 58.750644 
L 1163.180858 75.948526 
L 1165.81223 73.923657 
L 1166.851309 69.57694 
L 1166.870993 92.579444 
L 1166.939455 71.655805 
L 1167.021288 88.583704 
L 1167.022429 81.375173 
L 1167.715115 78.837338 
L 1167.715552 87.638766 
L 1167.722897 75.192575 
L 1167.734663 76.920462 
L 1168.153703 83.373043 
L 1179.554582 80.133254 
L 1180.190185 80.349239 
L 1180.201105 81.56416 
L 1180.37676 79.890269 
L 1180.379068 81.996132 
L 1180.382299 81.780146 
L 1180.508898 80.700217 
L 1180.509973 80.835208 
L 1180.973627 81.996132 
L 1180.983996 84.425974 
L 1180.993884 80.052259 
L 1181.836478 80.322241 
L 1181.837439 80.889204 
L 1191.000189 82.34711 
L 1191.508407 81.510164 
L 1191.509733 80.970199 
L 1191.515322 82.860076 
L 1191.516239 81.56416 
L 1192.413351 81.078192 
L 1192.424866 80.403236 
L 1192.436446 81.10519 
L 1192.525351 80.700217 
L 1192.526148 83.049064 
L 1192.545216 81.888139 
L 1192.842645 82.779082 
L 1200.633 81.348175 
L 1201.576882 80.133254 
L 1201.611306 81.915138 
L 1201.612311 79.458297 
L 1201.615039 81.645155 
L 1202.466054 80.052259 
L 1203.379554 82.401106 
L 1203.838558 81.024196 
L 1203.83888 79.620287 
L 1203.92277 82.266115 
L 1204.818376 81.321176 
L 1204.82767 80.268245 
L 1207.011476 81.294178 
L 1207.945649 80.889204 
L 1207.984974 81.132189 
L 1208.042243 82.64409 
L 1215.274779 80.700217 
L 1216.248528 81.078192 
L 1216.251093 82.34711 
L 1216.26753 80.64622 
L 1216.341051 81.159187 
L 1216.422376 80.18725 
L 1216.423337 81.510164 
L 1216.476464 80.727215 
L 1217.158645 80.538227 
L 1220.752366 80.592224 
L 1221.737035 80.133254 
L 1221.780273 83.049064 
L 1221.946727 80.214248 
L 1221.947458 80.700217 
L 1221.951901 82.671089 
L 1221.960185 82.104125 
L 1222.628199 79.971264 
L 1226.252797 81.753148 
L 1226.83202 81.024196 
L 1226.844081 82.536097 
L 1226.839868 80.781211 
L 1226.855296 81.861141 
L 1227.634988 81.348175 
L 1227.636042 79.782276 
L 1230.380232 80.025261 
L 1247.765203 80.970199 
L 1248.218302 82.563096 
L 1248.220223 80.538227 
L 1248.226128 83.049064 
L 1248.226952 82.968069 
L 1248.743389 82.995067 
L 1248.743847 80.268245 
L 1248.764427 81.753148 
L 1253.26284 80.916203 
L 1254.683255 80.349239 
L 1254.752175 82.968069 
L 1254.76083 80.754213 
L 1255.09275 80.268245 
L 1255.09275 80.268245 
" style="fill:none;stroke:#a0a0a4;stroke-linecap:square;"/>
   </g>
   <g id="patch_3">
    <path d="M 95.506063 567.262583 
L 95.506063 26.35275 
" style="fill:none;stroke:#000000;stroke-linecap:square;stroke-linejoin:miter;stroke-width:0.8;"/>
   </g>
   <g id="patch_4">
    <path d="M 1255.09275 567.262583 
L 1255.09275 26.35275 
" style="fill:none;stroke:#000000;stroke-linecap:square;stroke-linejoin:miter;stroke-width:0.8;"/>
   </g>
   <g id="patch_5">
    <path d="M 95.506062 567.262583 
L 1255.09275 567.262583 
" style="fill:none;stroke:#000000;stroke-linecap:square;stroke-linejoin:miter;stroke-width:0.8;"/>
   </g>
   <g id="patch_6">
    <path d="M 95.506062 26.35275 
L 1255.09275 26.35275 
" style="fill:none;stroke:#000000;stroke-linecap:square;stroke-linejoin:miter;stroke-width:0.8;"/>
   </g>
   <g id="legend_1">
    <g id="patch_7">
     <path d="M 102.506063 64.26525 
L 280.77325 64.26525 
Q 282.77325 64.26525 282.77325 62.26525 
L 282.77325 33.35275 
Q 282.77325 31.35275 280.77325 31.35275 
L 102.506063 31.35275 
Q 100.506063 31.35275 100.506063 33.35275 
L 100.506063 62.26525 
Q 100.506063 64.26525 102.506063 64.26525 
z
" style="fill:#ffffff;opacity:0.8;stroke:#cccccc;stroke-linejoin:miter;"/>
    </g>
    <g id="line2d_31">
     <path d="M 104.506063 39.451187 
L 124.506063 39.451187 
" style="fill:none;stroke:#a0a0a4;stroke-linecap:square;"/>
    </g>
    <g id="line2d_32"/>
    <g id="text_15">
     <!-- /sensor_data/accelZ -->
     <defs>
      <path d="M 25.390625 72.90625 
L 33.6875 72.90625 
L 8.296875 -9.28125 
L 0 -9.28125 
z
" id="DejaVuSans-2f"/>
      <path d="M 44.28125 53.078125 
L 44.28125 44.578125 
Q 40.484375 46.53125 36.375 47.5 
Q 32.28125 48.484375 27.875 48.484375 
Q 21.1875 48.484375 17.84375 46.4375 
Q 14.5 44.390625 14.5 40.28125 
Q 14.5 37.15625 16.890625 35.375 
Q 19.28125 33.59375 26.515625 31.984375 
L 29.59375 31.296875 
Q 39.15625 29.25 43.1875 25.515625 
Q 47.21875 21.78125 47.21875 15.09375 
Q 47.21875 7.46875 41.1875 3.015625 
Q 35.15625 -1.421875 24.609375 -1.421875 
Q 20.21875 -1.421875 15.453125 -0.5625 
Q 10.6875 0.296875 5.421875 2 
L 5.421875 11.28125 
Q 10.40625 8.6875 15.234375 7.390625 
Q 20.0625 6.109375 24.8125 6.109375 
Q 31.15625 6.109375 34.5625 8.28125 
Q 37.984375 10.453125 37.984375 14.40625 
Q 37.984375 18.0625 35.515625 20.015625 
Q 33.0625 21.96875 24.703125 23.78125 
L 21.578125 24.515625 
Q 13.234375 26.265625 9.515625 29.90625 
Q 5.8125 33.546875 5.8125 39.890625 
Q 5.8125 47.609375 11.28125 51.796875 
Q 16.75 56 26.8125 56 
Q 31.78125 56 36.171875 55.265625 
Q 40.578125 54.546875 44.28125 53.078125 
z
" id="DejaVuSans-73"/>
      <path d="M 56.203125 29.59375 
L 56.203125 25.203125 
L 14.890625 25.203125 
Q 15.484375 15.921875 20.484375 11.0625 
Q 25.484375 6.203125 34.421875 6.203125 
Q 39.59375 6.203125 44.453125 7.46875 
Q 49.3125 8.734375 54.109375 11.28125 
L 54.109375 2.78125 
Q 49.265625 0.734375 44.1875 -0.34375 
Q 39.109375 -1.421875 33.890625 -1.421875 
Q 20.796875 -1.421875 13.15625 6.1875 
Q 5.515625 13.8125 5.515625 26.8125 
Q 5.515625 40.234375 12.765625 48.109375 
Q 20.015625 56 32.328125 56 
Q 43.359375 56 49.78125 48.890625 
Q 56.203125 41.796875 56.203125 29.59375 
z
M 47.21875 32.234375 
Q 47.125 39.59375 43.09375 43.984375 
Q 39.0625 48.390625 32.421875 48.390625 
Q 24.90625 48.390625 20.390625 44.140625 
Q 15.875 39.890625 15.1875 32.171875 
z
" id="DejaVuSans-65"/>
      <path d="M 54.890625 33.015625 
L 54.890625 0 
L 45.90625 0 
L 45.90625 32.71875 
Q 45.90625 40.484375 42.875 44.328125 
Q 39.84375 48.1875 33.796875 48.1875 
Q 26.515625 48.1875 22.3125 43.546875 
Q 18.109375 38.921875 18.109375 30.90625 
L 18.109375 0 
L 9.078125 0 
L 9.078125 54.6875 
L 18.109375 54.6875 
L 18.109375 46.1875 
Q 21.34375 51.125 25.703125 53.5625 
Q 30.078125 56 35.796875 56 
Q 45.21875 56 50.046875 50.171875 
Q 54.890625 44.34375 54.890625 33.015625 
z
" id="DejaVuSans-6e"/>
      <path d="M 30.609375 48.390625 
Q 23.390625 48.390625 19.1875 42.75 
Q 14.984375 37.109375 14.984375 27.296875 
Q 14.984375 17.484375 19.15625 11.84375 
Q 23.34375 6.203125 30.609375 6.203125 
Q 37.796875 6.203125 41.984375 11.859375 
Q 46.1875 17.53125 46.1875 27.296875 
Q 46.1875 37.015625 41.984375 42.703125 
Q 37.796875 48.390625 30.609375 48.390625 
z
M 30.609375 56 
Q 42.328125 56 49.015625 48.375 
Q 55.71875 40.765625 55.71875 27.296875 
Q 55.71875 13.875 49.015625 6.21875 
Q 42.328125 -1.421875 30.609375 -1.421875 
Q 18.84375 -1.421875 12.171875 6.21875 
Q 5.515625 13.875 5.515625 27.296875 
Q 5.515625 40.765625 12.171875 48.375 
Q 18.84375 56 30.609375 56 
z
" id="DejaVuSans-6f"/>
      <path d="M 41.109375 46.296875 
Q 39.59375 47.171875 37.8125 47.578125 
Q 36.03125 48 33.890625 48 
Q 26.265625 48 22.1875 43.046875 
Q 18.109375 38.09375 18.109375 28.8125 
L 18.109375 0 
L 9.078125 0 
L 9.078125 54.6875 
L 18.109375 54.6875 
L 18.109375 46.1875 
Q 20.953125 51.171875 25.484375 53.578125 
Q 30.03125 56 36.53125 56 
Q 37.453125 56 38.578125 55.875 
Q 39.703125 55.765625 41.0625 55.515625 
z
" id="DejaVuSans-72"/>
      <path d="M 50.984375 -16.609375 
L 50.984375 -23.578125 
L -0.984375 -23.578125 
L -0.984375 -16.609375 
z
" id="DejaVuSans-5f"/>
      <path d="M 45.40625 46.390625 
L 45.40625 75.984375 
L 54.390625 75.984375 
L 54.390625 0 
L 45.40625 0 
L 45.40625 8.203125 
Q 42.578125 3.328125 38.25 0.953125 
Q 33.9375 -1.421875 27.875 -1.421875 
Q 17.96875 -1.421875 11.734375 6.484375 
Q 5.515625 14.40625 5.515625 27.296875 
Q 5.515625 40.1875 11.734375 48.09375 
Q 17.96875 56 27.875 56 
Q 33.9375 56 38.25 53.625 
Q 42.578125 51.265625 45.40625 46.390625 
z
M 14.796875 27.296875 
Q 14.796875 17.390625 18.875 11.75 
Q 22.953125 6.109375 30.078125 6.109375 
Q 37.203125 6.109375 41.296875 11.75 
Q 45.40625 17.390625 45.40625 27.296875 
Q 45.40625 37.203125 41.296875 42.84375 
Q 37.203125 48.484375 30.078125 48.484375 
Q 22.953125 48.484375 18.875 42.84375 
Q 14.796875 37.203125 14.796875 27.296875 
z
" id="DejaVuSans-64"/>
      <path d="M 34.28125 27.484375 
Q 23.390625 27.484375 19.1875 25 
Q 14.984375 22.515625 14.984375 16.5 
Q 14.984375 11.71875 18.140625 8.90625 
Q 21.296875 6.109375 26.703125 6.109375 
Q 34.1875 6.109375 38.703125 11.40625 
Q 43.21875 16.703125 43.21875 25.484375 
L 43.21875 27.484375 
z
M 52.203125 31.203125 
L 52.203125 0 
L 43.21875 0 
L 43.21875 8.296875 
Q 40.140625 3.328125 35.546875 0.953125 
Q 30.953125 -1.421875 24.3125 -1.421875 
Q 15.921875 -1.421875 10.953125 3.296875 
Q 6 8.015625 6 15.921875 
Q 6 25.140625 12.171875 29.828125 
Q 18.359375 34.515625 30.609375 34.515625 
L 43.21875 34.515625 
L 43.21875 35.40625 
Q 43.21875 41.609375 39.140625 45 
Q 35.0625 48.390625 27.6875 48.390625 
Q 23 48.390625 18.546875 47.265625 
Q 14.109375 46.140625 10.015625 43.890625 
L 10.015625 52.203125 
Q 14.9375 54.109375 19.578125 55.046875 
Q 24.21875 56 28.609375 56 
Q 40.484375 56 46.34375 49.84375 
Q 52.203125 43.703125 52.203125 31.203125 
z
" id="DejaVuSans-61"/>
      <path d="M 18.3125 70.21875 
L 18.3125 54.6875 
L 36.8125 54.6875 
L 36.8125 47.703125 
L 18.3125 47.703125 
L 18.3125 18.015625 
Q 18.3125 11.328125 20.140625 9.421875 
Q 21.96875 7.515625 27.59375 7.515625 
L 36.8125 7.515625 
L 36.8125 0 
L 27.59375 0 
Q 17.1875 0 13.234375 3.875 
Q 9.28125 7.765625 9.28125 18.015625 
L 9.28125 47.703125 
L 2.6875 47.703125 
L 2.6875 54.6875 
L 9.28125 54.6875 
L 9.28125 70.21875 
z
" id="DejaVuSans-74"/>
      <path d="M 48.78125 52.59375 
L 48.78125 44.1875 
Q 44.96875 46.296875 41.140625 47.34375 
Q 37.3125 48.390625 33.40625 48.390625 
Q 24.65625 48.390625 19.8125 42.84375 
Q 14.984375 37.3125 14.984375 27.296875 
Q 14.984375 17.28125 19.8125 11.734375 
Q 24.65625 6.203125 33.40625 6.203125 
Q 37.3125 6.203125 41.140625 7.25 
Q 44.96875 8.296875 48.78125 10.40625 
L 48.78125 2.09375 
Q 45.015625 0.34375 40.984375 -0.53125 
Q 36.96875 -1.421875 32.421875 -1.421875 
Q 20.0625 -1.421875 12.78125 6.34375 
Q 5.515625 14.109375 5.515625 27.296875 
Q 5.515625 40.671875 12.859375 48.328125 
Q 20.21875 56 33.015625 56 
Q 37.15625 56 41.109375 55.140625 
Q 45.0625 54.296875 48.78125 52.59375 
z
" id="DejaVuSans-63"/>
      <path d="M 9.421875 75.984375 
L 18.40625 75.984375 
L 18.40625 0 
L 9.421875 0 
z
" id="DejaVuSans-6c"/>
      <path d="M 5.609375 72.90625 
L 62.890625 72.90625 
L 62.890625 65.375 
L 16.796875 8.296875 
L 64.015625 8.296875 
L 64.015625 0 
L 4.5 0 
L 4.5 7.515625 
L 50.59375 64.59375 
L 5.609375 64.59375 
z
" id="DejaVuSans-5a"/>
     </defs>
     <g transform="translate(132.506063 42.951187)scale(0.1 -0.1)">
      <use xlink:href="#DejaVuSans-2f"/>
      <use x="33.691406" xlink:href="#DejaVuSans-73"/>
      <use x="85.791016" xlink:href="#DejaVuSans-65"/>
      <use x="147.314453" xlink:href="#DejaVuSans-6e"/>
      <use x="210.693359" xlink:href="#DejaVuSans-73"/>
      <use x="262.792969" xlink:href="#DejaVuSans-6f"/>
      <use x="323.974609" xlink:href="#DejaVuSans-72"/>
      <use x="365.087891" xlink:href="#DejaVuSans-5f"/>
      <use x="415.087891" xlink:href="#DejaVuSans-64"/>
      <use x="478.564453" xlink:href="#DejaVuSans-61"/>
      <use x="539.84375" xlink:href="#DejaVuSans-74"/>
      <use x="579.052734" xlink:href="#DejaVuSans-61"/>
      <use x="640.332031" xlink:href="#DejaVuSans-2f"/>
      <use x="674.023438" xlink:href="#DejaVuSans-61"/>
      <use x="735.302734" xlink:href="#DejaVuSans-63"/>
      <use x="790.283203" xlink:href="#DejaVuSans-63"/>
      <use x="845.263672" xlink:href="#DejaVuSans-65"/>
      <use x="906.787109" xlink:href="#DejaVuSans-6c"/>
      <use x="934.570312" xlink:href="#DejaVuSans-5a"/>
     </g>
    </g>
    <g id="line2d_33">
     <path d="M 104.506063 54.407437 
L 124.506063 54.407437 
" style="fill:none;stroke:#ff0000;stroke-linecap:square;"/>
    </g>
    <g id="line2d_34"/>
    <g id="text_16">
     <!-- /sensor_data/battery_voltage -->
     <defs>
      <path d="M 48.6875 27.296875 
Q 48.6875 37.203125 44.609375 42.84375 
Q 40.53125 48.484375 33.40625 48.484375 
Q 26.265625 48.484375 22.1875 42.84375 
Q 18.109375 37.203125 18.109375 27.296875 
Q 18.109375 17.390625 22.1875 11.75 
Q 26.265625 6.109375 33.40625 6.109375 
Q 40.53125 6.109375 44.609375 11.75 
Q 48.6875 17.390625 48.6875 27.296875 
z
M 18.109375 46.390625 
Q 20.953125 51.265625 25.265625 53.625 
Q 29.59375 56 35.59375 56 
Q 45.5625 56 51.78125 48.09375 
Q 58.015625 40.1875 58.015625 27.296875 
Q 58.015625 14.40625 51.78125 6.484375 
Q 45.5625 -1.421875 35.59375 -1.421875 
Q 29.59375 -1.421875 25.265625 0.953125 
Q 20.953125 3.328125 18.109375 8.203125 
L 18.109375 0 
L 9.078125 0 
L 9.078125 75.984375 
L 18.109375 75.984375 
z
" id="DejaVuSans-62"/>
      <path d="M 32.171875 -5.078125 
Q 28.375 -14.84375 24.75 -17.8125 
Q 21.140625 -20.796875 15.09375 -20.796875 
L 7.90625 -20.796875 
L 7.90625 -13.28125 
L 13.1875 -13.28125 
Q 16.890625 -13.28125 18.9375 -11.515625 
Q 21 -9.765625 23.484375 -3.21875 
L 25.09375 0.875 
L 2.984375 54.6875 
L 12.5 54.6875 
L 29.59375 11.921875 
L 46.6875 54.6875 
L 56.203125 54.6875 
z
" id="DejaVuSans-79"/>
      <path d="M 2.984375 54.6875 
L 12.5 54.6875 
L 29.59375 8.796875 
L 46.6875 54.6875 
L 56.203125 54.6875 
L 35.6875 0 
L 23.484375 0 
z
" id="DejaVuSans-76"/>
      <path d="M 45.40625 27.984375 
Q 45.40625 37.75 41.375 43.109375 
Q 37.359375 48.484375 30.078125 48.484375 
Q 22.859375 48.484375 18.828125 43.109375 
Q 14.796875 37.75 14.796875 27.984375 
Q 14.796875 18.265625 18.828125 12.890625 
Q 22.859375 7.515625 30.078125 7.515625 
Q 37.359375 7.515625 41.375 12.890625 
Q 45.40625 18.265625 45.40625 27.984375 
z
M 54.390625 6.78125 
Q 54.390625 -7.171875 48.1875 -13.984375 
Q 42 -20.796875 29.203125 -20.796875 
Q 24.46875 -20.796875 20.265625 -20.09375 
Q 16.0625 -19.390625 12.109375 -17.921875 
L 12.109375 -9.1875 
Q 16.0625 -11.328125 19.921875 -12.34375 
Q 23.78125 -13.375 27.78125 -13.375 
Q 36.625 -13.375 41.015625 -8.765625 
Q 45.40625 -4.15625 45.40625 5.171875 
L 45.40625 9.625 
Q 42.625 4.78125 38.28125 2.390625 
Q 33.9375 0 27.875 0 
Q 17.828125 0 11.671875 7.65625 
Q 5.515625 15.328125 5.515625 27.984375 
Q 5.515625 40.671875 11.671875 48.328125 
Q 17.828125 56 27.875 56 
Q 33.9375 56 38.28125 53.609375 
Q 42.625 51.21875 45.40625 46.390625 
L 45.40625 54.6875 
L 54.390625 54.6875 
z
" id="DejaVuSans-67"/>
     </defs>
     <g transform="translate(132.506063 57.907437)scale(0.1 -0.1)">
      <use xlink:href="#DejaVuSans-2f"/>
      <use x="33.691406" xlink:href="#DejaVuSans-73"/>
      <use x="85.791016" xlink:href="#DejaVuSans-65"/>
      <use x="147.314453" xlink:href="#DejaVuSans-6e"/>
      <use x="210.693359" xlink:href="#DejaVuSans-73"/>
      <use x="262.792969" xlink:href="#DejaVuSans-6f"/>
      <use x="323.974609" xlink:href="#DejaVuSans-72"/>
      <use x="365.087891" xlink:href="#DejaVuSans-5f"/>
      <use x="415.087891" xlink:href="#DejaVuSans-64"/>
      <use x="478.564453" xlink:href="#DejaVuSans-61"/>
      <use x="539.84375" xlink:href="#DejaVuSans-74"/>
      <use x="579.052734" xlink:href="#DejaVuSans-61"/>
      <use x="640.332031" xlink:href="#DejaVuSans-2f"/>
      <use x="674.023438" xlink:href="#DejaVuSans-62"/>
      <use x="737.5" xlink:href="#DejaVuSans-61"/>
      <use x="798.779297" xlink:href="#DejaVuSans-74"/>
      <use x="837.988281" xlink:href="#DejaVuSans-74"/>
      <use x="877.197266" xlink:href="#DejaVuSans-65"/>
      <use x="938.720703" xlink:href="#DejaVuSans-72"/>
      <use x="979.833984" xlink:href="#DejaVuSans-79"/>
      <use x="1039.013672" xlink:href="#DejaVuSans-5f"/>
      <use x="1089.013672" xlink:href="#DejaVuSans-76"/>
      <use x="1148.193359" xlink:href="#DejaVuSans-6f"/>
      <use x="1209.375" xlink:href="#DejaVuSans-6c"/>
      <use x="1237.158203" xlink:href="#DejaVuSans-74"/>
      <use x="1276.367188" xlink:href="#DejaVuSans-61"/>
      <use x="1337.646484" xlink:href="#DejaVuSans-67"/>
      <use x="1401.123047" xlink:href="#DejaVuSans-65"/>
     </g>
    </g>
   </g>
  </g>
 </g>
 <defs>
  <clipPath id="p9d5af6cb3f">
   <rect height="540.909833" width="1159.586688" x="95.506063" y="26.35275"/>
  </clipPath>
 </defs>
</svg>
