<?xml version="1.0" encoding="UTF-8" standalone="no"?>
<svg width="406.047mm" height="63.5mm"
 xmlns="http://www.w3.org/2000/svg" xmlns:xlink="http://www.w3.org/1999/xlink"  version="1.2" baseProfile="tiny">
<title>Qt SVG Document</title>
<desc>Generated with Qt</desc>
<defs>
</defs>
<g fill="none" stroke="black" stroke-width="1" fill-rule="evenodd" stroke-linecap="square" stroke-linejoin="bevel" >

<g fill="none" stroke="#000000" stroke-opacity="1" stroke-width="1" stroke-linecap="square" stroke-linejoin="bevel" transform="matrix(1,0,0,1,0,0)"
font-family="Ubuntu" font-size="11" font-weight="400" font-style="normal" 
>
</g>

<g fill="none" stroke="#000000" stroke-opacity="1" stroke-width="1" stroke-linecap="square" stroke-linejoin="bevel" transform="matrix(1,0,0,1,0,0)"
font-family="Ubuntu" font-size="11" font-weight="400" font-style="normal" 
>
</g>

<g fill="none" stroke="#000000" stroke-opacity="1" stroke-width="1" stroke-linecap="square" stroke-linejoin="bevel" transform="matrix(1.99976,0,0,1.99976,-0.00559933,179.979)"
font-family="Ubuntu" font-size="11" font-weight="400" font-style="normal" 
>
</g>

<g fill="#ffffff" fill-opacity="1" stroke="none" transform="matrix(1.99976,0,0,1.99976,-0.00559933,179.979)"
font-family="Ubuntu" font-size="11" font-weight="400" font-style="normal" 
>
<rect x="0.0028" y="-90" width="575.568" height="90"/>
</g>

<g fill="none" stroke="#000000" stroke-opacity="1" stroke-width="1" stroke-linecap="square" stroke-linejoin="bevel" transform="matrix(1.99976,0,0,1.99976,-0.00559933,179.979)"
font-family="Ubuntu" font-size="11" font-weight="400" font-style="normal" 
>
</g>

<g fill="none" stroke="#000000" stroke-opacity="1" stroke-width="1" stroke-linecap="square" stroke-linejoin="bevel" transform="matrix(1.99976,0,0,1.99976,-0.00559933,179.979)"
font-family="Ubuntu" font-size="11" font-weight="400" font-style="normal" 
>
</g>

<g fill="none" stroke="#000000" stroke-opacity="1" stroke-width="1" stroke-linecap="square" stroke-linejoin="bevel" transform="matrix(1.99976,0,0,1.99976,-0.00559933,179.979)"
font-family="Ubuntu" font-size="11" font-weight="400" font-style="normal" 
>
</g>

<g fill="none" stroke="#000000" stroke-opacity="1" stroke-width="1" stroke-linecap="square" stroke-linejoin="bevel" transform="matrix(1.99976,0,0,1.99976,-0.00559933,179.979)"
font-family="Ubuntu" font-size="11" font-weight="400" font-style="normal" 
>
</g>

<g fill="none" stroke="#000000" stroke-opacity="1" stroke-width="1" stroke-linecap="square" stroke-linejoin="round" transform="matrix(1.99976,0,0,1.99976,-0.00559933,179.979)"
font-family="Ubuntu" font-size="11" font-weight="400" font-style="normal" 
>
<rect x="493.57" y="-89.5" width="80" height="35"/>
</g>

<g fill="none" stroke="#000000" stroke-opacity="1" stroke-width="1" stroke-linecap="square" stroke-linejoin="bevel" transform="matrix(1.99976,0,0,1.99976,-0.00559933,179.979)"
font-family="Ubuntu" font-size="11" font-weight="400" font-style="normal" 
>
</g>

<g fill="none" stroke="#000000" stroke-opacity="1" stroke-width="1" stroke-linecap="square" stroke-linejoin="bevel" transform="matrix(1.99976,0,0,1.99976,1001.44,21.9974)"
font-family="Ubuntu" font-size="11" font-weight="400" font-style="normal" 
>
</g>

<g fill="none" stroke="#000000" stroke-opacity="1" stroke-width="1" stroke-linecap="square" stroke-linejoin="bevel" transform="matrix(1.99976,0,0,1.99976,1001.44,21.9974)"
font-family="sans" font-size="11" font-weight="100" font-style="normal" 
>
</g>

<g fill="#000000" fill-opacity="1" stroke="#000000" stroke-opacity="1" stroke-width="1" stroke-linecap="square" stroke-linejoin="round" transform="matrix(1.99976,0,0,1.99976,1001.44,21.9974)"
font-family="sans" font-size="11" font-weight="100" font-style="normal" 
>
<path vector-effect="none" fill-rule="nonzero" d="M2.96875,2.98438 L3.53125,2.98438 L0.734375,12.0156 L0.171875,12.0156 L2.96875,2.98438 M8.95313,6.35938 L8.95313,2.64063 L9.42188,2.64063 L9.42188,11 L8.95313,11 L8.95313,9.64063 C8.72396,10.1615 8.47396,10.5156 8.20313,10.7031 C7.80729,11.0052 7.42708,11.1563 7.0625,11.1563 C6.35417,11.1563 5.76302,10.8672 5.28906,10.2891 C4.8151,9.71094 4.57813,8.94792 4.57813,8 C4.57813,7.05208 4.8151,6.28906 5.28906,5.71094 C5.76302,5.13281 6.35417,4.84375 7.0625,4.84375 C7.42708,4.84375 7.80729,4.98958 8.20313,5.28125 C8.47396,5.47917 8.72396,5.83854 8.95313,6.35938 M5.71875,5.90625 C5.30208,6.32292 5.09375,7.02083 5.09375,8 C5.09375,8.97917 5.30208,9.67708 5.71875,10.0938 C6.13542,10.5104 6.57292,10.7188 7.03125,10.7188 C7.47917,10.7188 7.91146,10.5104 8.32813,10.0938 C8.73438,9.67708 8.9375,8.97917 8.9375,8 C8.9375,7.02083 8.73438,6.32292 8.32813,5.90625 C7.91146,5.48958 7.47917,5.28125 7.03125,5.28125 C6.57292,5.28125 6.13542,5.48958 5.71875,5.90625 M11.9063,4.98438 L12.4063,4.98438 L12.4063,11 L11.9063,11 L11.9063,4.98438 M11.9063,2.64063 L12.4063,2.64063 L12.4063,3.3125 L11.9063,3.3125 L11.9063,2.64063 M17.375,7.60938 C16.5729,7.60938 15.9974,7.75 15.6484,8.03125 C15.2995,8.3125 15.125,8.72396 15.125,9.26563 C15.125,9.79688 15.2708,10.1745 15.5625,10.3984 C15.8542,10.6224 16.1979,10.7344 16.5938,10.7344 C17.3438,10.7344 17.8854,10.4167 18.2188,9.78125 C18.5521,9.13542 18.7188,8.53125 18.7188,7.96875 L18.7188,7.60938 L17.375,7.60938 M19.2188,7.5625 L19.2188,11 L18.7188,11 L18.7188,9.35938 C18.4479,10.1615 18.0833,10.6719 17.625,10.8906 C17.2708,11.0677 16.9115,11.1563 16.5469,11.1563 C15.9531,11.1563 15.4844,10.9948 15.1406,10.6719 C14.7969,10.349 14.625,9.8776 14.625,9.25781 C14.625,8.63802 14.849,8.14063 15.2969,7.76563 C15.7448,7.39063 16.474,7.20313 17.4844,7.20313 L18.7188,7.20313 L18.7188,7.10938 C18.7188,6.57813 18.5625,6.14063 18.25,5.79688 C17.9583,5.45313 17.4635,5.28125 16.7656,5.28125 C16.4219,5.28125 16.0729,5.34375 15.7188,5.46875 C15.4896,5.55208 15.1875,5.71875 14.8125,5.96875 L14.8125,5.4375 C15.1354,5.23958 15.4375,5.09896 15.7188,5.01563 C16.1146,4.90104 16.4948,4.84375 16.8594,4.84375 C17.5781,4.84375 18.1667,5.05729 18.625,5.48438 C19.0208,5.84896 19.2188,6.54167 19.2188,7.5625 M25.7031,7.92188 C25.7031,7.08854 25.5339,6.44271 25.1953,5.98438 C24.8568,5.52604 24.3802,5.29688 23.7656,5.29688 C23.1615,5.29688 22.6901,5.52604 22.3516,5.98438 C22.013,6.44271 21.8438,7.08854 21.8438,7.92188 C21.8438,8.75521 22.013,9.40104 22.3516,9.85938 C22.6901,10.3177 23.1615,10.5469 23.7656,10.5469 C24.3802,10.5469 24.8568,10.3177 25.1953,9.85938 C25.5339,9.40104 25.7031,8.75521 25.7031,7.92188 M26.1875,10.25 C26.1875,11.5 25.9505,12.3177 25.4766,12.7031 C25.0026,13.0885 24.401,13.2813 23.6719,13.2813 C23.3177,13.2813 22.9896,13.2604 22.6875,13.2188 C22.375,13.1563 22.0729,13.0729 21.7813,12.9688 L21.7813,12.4063 C22.0729,12.5625 22.3594,12.6797 22.6406,12.7578 C22.9219,12.8359 23.2135,12.875 23.5156,12.875 C24.1094,12.875 24.6224,12.7474 25.0547,12.4922 C25.487,12.237 25.7031,11.5521 25.7031,10.4375 L25.7031,9.48438 C25.5469,9.90104 25.3438,10.2292 25.0938,10.4688 C24.6979,10.8229 24.2552,11 23.7656,11 C23.0052,11 22.4115,10.7318 21.9844,10.1953 C21.5573,9.65885 21.3438,8.90104 21.3438,7.92188 C21.3438,6.94271 21.5573,6.1849 21.9844,5.64844 C22.4115,5.11198 23.0052,4.84375 23.7656,4.84375 C24.2552,4.84375 24.6719,4.99479 25.0156,5.29688 C25.2865,5.53646 25.5156,5.85938 25.7031,6.26563 L25.7031,4.98438 L26.1875,4.98438 L26.1875,10.25 M32.8438,7.375 L32.8438,11 L32.3438,11 L32.3438,7.40625 C32.3438,6.625 32.2188,6.07552 31.9688,5.75781 C31.7188,5.4401 31.349,5.28125 30.8594,5.28125 C30.2865,5.28125 29.8021,5.45313 29.4063,5.79688 C28.9896,6.14063 28.7813,6.73958 28.7813,7.59375 L28.7813,11 L28.2969,11 L28.2969,4.98438 L28.7813,4.98438 L28.7813,6.10938 C28.9583,5.74479 29.1927,5.46875 29.4844,5.28125 C29.901,4.98958 30.3646,4.84375 30.875,4.84375 C31.4792,4.84375 31.9583,5.04688 32.3125,5.45313 C32.6667,5.84896 32.8438,6.48958 32.8438,7.375 M38.8438,6.01563 C38.4896,5.52604 38.0052,5.28125 37.3906,5.28125 C36.776,5.28125 36.2917,5.52604 35.9375,6.01563 C35.5833,6.49479 35.4063,7.15104 35.4063,7.98438 C35.4063,8.83854 35.5833,9.51042 35.9375,10 C36.2917,10.4896 36.776,10.7344 37.3906,10.7344 C38.0052,10.7344 38.4896,10.4896 38.8438,10 C39.1979,9.5 39.375,8.82813 39.375,7.98438 C39.375,7.16146 39.1979,6.50521 38.8438,6.01563 M37.3906,4.84375 C38.151,4.84375 38.7552,5.13021 39.2031,5.70313 C39.651,6.27604 39.875,7.03646 39.875,7.98438 C39.875,8.97396 39.651,9.75521 39.2031,10.3281 C38.7552,10.901 38.151,11.1875 37.3906,11.1875 C36.6094,11.1875 35.9948,10.901 35.5469,10.3281 C35.1094,9.75521 34.8906,8.97396 34.8906,7.98438 C34.8906,7.02604 35.1146,6.26302 35.5625,5.69531 C36.0104,5.1276 36.6198,4.84375 37.3906,4.84375 M45.3906,5.15625 L45.3906,5.70313 C45.0365,5.50521 44.8177,5.39583 44.7344,5.375 C44.4844,5.32292 44.1719,5.29167 43.7969,5.28125 C43.2344,5.28125 42.7917,5.39063 42.4688,5.60938 C42.2188,5.79688 42.0938,6.11458 42.0938,6.5625 C42.0938,6.875 42.2135,7.11458 42.4531,7.28125 C42.6927,7.46875 43.0417,7.61458 43.5,7.71875 L43.8438,7.78125 C44.4167,7.90625 44.849,8.08333 45.1406,8.3125 C45.4844,8.58333 45.6615,8.92708 45.6719,9.34375 C45.6719,9.90625 45.5052,10.349 45.1719,10.6719 C44.8177,10.9948 44.2396,11.1563 43.4375,11.1563 C43,11.1563 42.6667,11.125 42.4375,11.0625 C42.1563,10.9896 41.8646,10.8958 41.5625,10.7813 L41.5625,10.1563 C42,10.4063 42.2813,10.5521 42.4063,10.5938 C42.7604,10.6875 43.1146,10.7344 43.4688,10.7344 C44.0417,10.7344 44.4688,10.6146 44.75,10.375 C45.0313,10.125 45.1719,9.80729 45.1719,9.42188 C45.1719,9.08854 45.0781,8.84896 44.8906,8.70313 C44.6198,8.48438 44.1927,8.30729 43.6094,8.17188 L43.2656,8.09375 C42.7552,7.96875 42.3698,7.80208 42.1094,7.59375 C41.776,7.32292 41.6094,6.99479 41.6094,6.60938 C41.6094,5.98438 41.8099,5.53385 42.2109,5.25781 C42.612,4.98177 43.1042,4.84375 43.6875,4.84375 C44.1875,4.84375 44.5313,4.86979 44.7188,4.92188 C44.9479,4.98438 45.1719,5.0625 45.3906,5.15625 M48.2188,3.28125 L48.2188,4.98438 L50.25,4.98438 L50.25,5.40625 L48.2188,5.40625 L48.2188,9.01563 C48.2188,9.47396 48.276,9.79688 48.3906,9.98438 C48.6406,10.3802 49,10.5781 49.4688,10.5781 L50.25,10.5781 L50.25,11 L49.4844,11 C48.9948,11 48.5781,10.8568 48.2344,10.5703 C47.8906,10.2839 47.7188,9.76563 47.7188,9.01563 L47.7188,5.40625 L47,5.40625 L47,4.98438 L47.7188,4.98438 L47.7188,3.28125 L48.2188,3.28125 M52,4.98438 L52.5,4.98438 L52.5,11 L52,11 L52,4.98438 M52,2.64063 L52.5,2.64063 L52.5,3.3125 L52,3.3125 L52,2.64063 M59.1719,5.28125 L59.1719,5.79688 C58.8802,5.61979 58.6354,5.5 58.4375,5.4375 C58.1042,5.33333 57.7865,5.28125 57.4844,5.28125 C56.6198,5.28125 56,5.5026 55.625,5.94531 C55.25,6.38802 55.0625,7.07292 55.0625,8 C55.0625,8.9375 55.25,9.6276 55.625,10.0703 C56,10.513 56.6198,10.7344 57.4844,10.7344 C57.776,10.7344 58.0573,10.6927 58.3281,10.6094 C58.6198,10.5365 58.901,10.4219 59.1719,10.2656 L59.1719,10.7656 C58.901,10.901 58.6198,11 58.3281,11.0625 C58.026,11.125 57.7292,11.1563 57.4375,11.1563 C56.5625,11.1563 55.8646,10.9167 55.3438,10.4375 C54.8229,9.95833 54.5625,9.14323 54.5625,7.99219 C54.5625,6.84115 54.8229,6.02604 55.3438,5.54688 C55.8646,5.07813 56.5625,4.84375 57.4375,4.84375 C57.7292,4.84375 58.0365,4.88542 58.3594,4.96875 C58.6823,5.04167 58.9531,5.14583 59.1719,5.28125 M64.5156,5.15625 L64.5156,5.70313 C64.1615,5.50521 63.9427,5.39583 63.8594,5.375 C63.6094,5.32292 63.2969,5.29167 62.9219,5.28125 C62.3594,5.28125 61.9167,5.39063 61.5938,5.60938 C61.3438,5.79688 61.2188,6.11458 61.2188,6.5625 C61.2188,6.875 61.3385,7.11458 61.5781,7.28125 C61.8177,7.46875 62.1667,7.61458 62.625,7.71875 L62.9688,7.78125 C63.5417,7.90625 63.974,8.08333 64.2656,8.3125 C64.6094,8.58333 64.7865,8.92708 64.7969,9.34375 C64.7969,9.90625 64.6302,10.349 64.2969,10.6719 C63.9427,10.9948 63.3646,11.1563 62.5625,11.1563 C62.125,11.1563 61.7917,11.125 61.5625,11.0625 C61.2813,10.9896 60.9896,10.8958 60.6875,10.7813 L60.6875,10.1563 C61.125,10.4063 61.4063,10.5521 61.5313,10.5938 C61.8854,10.6875 62.2396,10.7344 62.5938,10.7344 C63.1667,10.7344 63.5938,10.6146 63.875,10.375 C64.1563,10.125 64.2969,9.80729 64.2969,9.42188 C64.2969,9.08854 64.2031,8.84896 64.0156,8.70313 C63.7448,8.48438 63.3177,8.30729 62.7344,8.17188 L62.3906,8.09375 C61.8802,7.96875 61.4948,7.80208 61.2344,7.59375 C60.901,7.32292 60.7344,6.99479 60.7344,6.60938 C60.7344,5.98438 60.9349,5.53385 61.3359,5.25781 C61.737,4.98177 62.2292,4.84375 62.8125,4.84375 C63.3125,4.84375 63.6563,4.86979 63.8438,4.92188 C64.0729,4.98438 64.2969,5.0625 64.5156,5.15625 "/>
</g>

<g fill="none" stroke="#000000" stroke-opacity="1" stroke-width="1" stroke-linecap="square" stroke-linejoin="bevel" transform="matrix(1.99976,0,0,1.99976,1001.44,21.9974)"
font-family="sans" font-size="11" font-weight="100" font-style="normal" 
>
</g>

<g fill="none" stroke="#000000" stroke-opacity="1" stroke-width="1" stroke-linecap="square" stroke-linejoin="bevel" transform="matrix(1.99976,0,0,1.99976,1001.44,21.9974)"
font-family="Ubuntu" font-size="11" font-weight="400" font-style="normal" 
>
</g>

<g fill="none" stroke="#000000" stroke-opacity="1" stroke-width="1" stroke-linecap="square" stroke-linejoin="bevel" transform="matrix(1.99976,0,0,1.99976,-0.00559933,179.979)"
font-family="Ubuntu" font-size="11" font-weight="400" font-style="normal" 
>
</g>

<g fill="none" stroke="#000000" stroke-opacity="1" stroke-width="1" stroke-linecap="square" stroke-linejoin="bevel" transform="matrix(1.99976,0,0,1.99976,-0.00559933,179.979)"
font-family="Ubuntu" font-size="11" font-weight="400" font-style="normal" 
>
</g>

<g fill="none" stroke="#000000" stroke-opacity="1" stroke-width="1" stroke-linecap="square" stroke-linejoin="bevel" transform="matrix(1.99976,0,0,1.99976,-0.00559933,179.979)"
font-family="Ubuntu" font-size="11" font-weight="400" font-style="normal" 
>
</g>

<g fill="none" stroke="#000000" stroke-opacity="1" stroke-width="1" stroke-linecap="square" stroke-linejoin="round" transform="matrix(1.99976,0,0,1.99976,-0.00559933,179.979)"
font-family="Ubuntu" font-size="11" font-weight="400" font-style="normal" 
>
<rect x="287.68" y="-35.5" width="53" height="35"/>
</g>

<g fill="none" stroke="#000000" stroke-opacity="1" stroke-width="1" stroke-linecap="square" stroke-linejoin="bevel" transform="matrix(1.99976,0,0,1.99976,-0.00559933,179.979)"
font-family="Ubuntu" font-size="11" font-weight="400" font-style="normal" 
>
</g>

<g fill="none" stroke="#000000" stroke-opacity="1" stroke-width="1" stroke-linecap="square" stroke-linejoin="bevel" transform="matrix(1.99976,0,0,1.99976,591.237,129.985)"
font-family="Ubuntu" font-size="11" font-weight="400" font-style="normal" 
>
</g>

<g fill="none" stroke="#000000" stroke-opacity="1" stroke-width="1" stroke-linecap="square" stroke-linejoin="bevel" transform="matrix(1.99976,0,0,1.99976,591.237,129.985)"
font-family="sans" font-size="11" font-weight="100" font-style="normal" 
>
</g>

<g fill="#000000" fill-opacity="1" stroke="#000000" stroke-opacity="1" stroke-width="1" stroke-linecap="square" stroke-linejoin="round" transform="matrix(1.99976,0,0,1.99976,591.237,129.985)"
font-family="sans" font-size="11" font-weight="100" font-style="normal" 
>
<path vector-effect="none" fill-rule="nonzero" d="M2.96875,2.98438 L3.53125,2.98438 L0.734375,12.0156 L0.171875,12.0156 L2.96875,2.98438 M8.35938,5.15625 L8.35938,5.70313 C8.00521,5.50521 7.78646,5.39583 7.70313,5.375 C7.45313,5.32292 7.14063,5.29167 6.76563,5.28125 C6.20313,5.28125 5.76042,5.39063 5.4375,5.60938 C5.1875,5.79688 5.0625,6.11458 5.0625,6.5625 C5.0625,6.875 5.18229,7.11458 5.42188,7.28125 C5.66146,7.46875 6.01042,7.61458 6.46875,7.71875 L6.8125,7.78125 C7.38542,7.90625 7.81771,8.08333 8.10938,8.3125 C8.45313,8.58333 8.63021,8.92708 8.64063,9.34375 C8.64063,9.90625 8.47396,10.349 8.14063,10.6719 C7.78646,10.9948 7.20833,11.1563 6.40625,11.1563 C5.96875,11.1563 5.63542,11.125 5.40625,11.0625 C5.125,10.9896 4.83333,10.8958 4.53125,10.7813 L4.53125,10.1563 C4.96875,10.4063 5.25,10.5521 5.375,10.5938 C5.72917,10.6875 6.08333,10.7344 6.4375,10.7344 C7.01042,10.7344 7.4375,10.6146 7.71875,10.375 C8,10.125 8.14063,9.80729 8.14063,9.42188 C8.14063,9.08854 8.04688,8.84896 7.85938,8.70313 C7.58854,8.48438 7.16146,8.30729 6.57813,8.17188 L6.23438,8.09375 C5.72396,7.96875 5.33854,7.80208 5.07813,7.59375 C4.74479,7.32292 4.57813,6.99479 4.57813,6.60938 C4.57813,5.98438 4.77865,5.53385 5.17969,5.25781 C5.58073,4.98177 6.07292,4.84375 6.65625,4.84375 C7.15625,4.84375 7.5,4.86979 7.6875,4.92188 C7.91667,4.98438 8.14063,5.0625 8.35938,5.15625 M14.25,6.01563 C13.8958,5.52604 13.4115,5.28125 12.7969,5.28125 C12.1823,5.28125 11.6979,5.52604 11.3438,6.01563 C10.9896,6.49479 10.8125,7.15104 10.8125,7.98438 C10.8125,8.83854 10.9896,9.51042 11.3438,10 C11.6979,10.4896 12.1823,10.7344 12.7969,10.7344 C13.4115,10.7344 13.8958,10.4896 14.25,10 C14.6042,9.5 14.7813,8.82813 14.7813,7.98438 C14.7813,7.16146 14.6042,6.50521 14.25,6.01563 M12.7969,4.84375 C13.5573,4.84375 14.1615,5.13021 14.6094,5.70313 C15.0573,6.27604 15.2813,7.03646 15.2813,7.98438 C15.2813,8.97396 15.0573,9.75521 14.6094,10.3281 C14.1615,10.901 13.5573,11.1875 12.7969,11.1875 C12.0156,11.1875 11.401,10.901 10.9531,10.3281 C10.5156,9.75521 10.2969,8.97396 10.2969,7.98438 C10.2969,7.02604 10.5208,6.26302 10.9688,5.69531 C11.4167,5.1276 12.026,4.84375 12.7969,4.84375 M17.3281,8.60938 L17.3281,4.98438 L17.8125,4.98438 L17.8125,8.57813 C17.8125,9.35938 17.9375,9.90885 18.1875,10.2266 C18.4375,10.5443 18.8073,10.7031 19.2969,10.7031 C19.8698,10.7031 20.3594,10.5313 20.7656,10.1875 C21.1719,9.84375 21.375,9.24479 21.375,8.39063 L21.375,4.98438 L21.8594,4.98438 L21.8594,11 L21.375,11 L21.375,9.875 C21.1979,10.2396 20.9635,10.5156 20.6719,10.7031 C20.2552,10.9948 19.7917,11.1406 19.2813,11.1406 C18.6875,11.1406 18.2135,10.9375 17.8594,10.5313 C17.5052,10.1354 17.3281,9.49479 17.3281,8.60938 M28.9063,7.375 L28.9063,11 L28.4063,11 L28.4063,7.40625 C28.4063,6.625 28.2813,6.07552 28.0313,5.75781 C27.7813,5.4401 27.4115,5.28125 26.9219,5.28125 C26.349,5.28125 25.8646,5.45313 25.4688,5.79688 C25.0521,6.14063 24.8438,6.73958 24.8438,7.59375 L24.8438,11 L24.3594,11 L24.3594,4.98438 L24.8438,4.98438 L24.8438,6.10938 C25.0208,5.74479 25.2552,5.46875 25.5469,5.28125 C25.9635,4.98958 26.4271,4.84375 26.9375,4.84375 C27.5417,4.84375 28.0208,5.04688 28.375,5.45313 C28.7292,5.84896 28.9063,6.48958 28.9063,7.375 M35.3281,6.35938 L35.3281,2.64063 L35.7969,2.64063 L35.7969,11 L35.3281,11 L35.3281,9.64063 C35.099,10.1615 34.849,10.5156 34.5781,10.7031 C34.1823,11.0052 33.8021,11.1563 33.4375,11.1563 C32.7292,11.1563 32.138,10.8672 31.6641,10.2891 C31.1901,9.71094 30.9531,8.94792 30.9531,8 C30.9531,7.05208 31.1901,6.28906 31.6641,5.71094 C32.138,5.13281 32.7292,4.84375 33.4375,4.84375 C33.8021,4.84375 34.1823,4.98958 34.5781,5.28125 C34.849,5.47917 35.099,5.83854 35.3281,6.35938 M32.0938,5.90625 C31.6771,6.32292 31.4688,7.02083 31.4688,8 C31.4688,8.97917 31.6771,9.67708 32.0938,10.0938 C32.5104,10.5104 32.9479,10.7188 33.4063,10.7188 C33.8542,10.7188 34.2865,10.5104 34.7031,10.0938 C35.1094,9.67708 35.3125,8.97917 35.3125,8 C35.3125,7.02083 35.1094,6.32292 34.7031,5.90625 C34.2865,5.48958 33.8542,5.28125 33.4063,5.28125 C32.9479,5.28125 32.5104,5.48958 32.0938,5.90625 "/>
</g>

<g fill="none" stroke="#000000" stroke-opacity="1" stroke-width="1" stroke-linecap="square" stroke-linejoin="bevel" transform="matrix(1.99976,0,0,1.99976,591.237,129.985)"
font-family="sans" font-size="11" font-weight="100" font-style="normal" 
>
</g>

<g fill="none" stroke="#000000" stroke-opacity="1" stroke-width="1" stroke-linecap="square" stroke-linejoin="bevel" transform="matrix(1.99976,0,0,1.99976,591.237,129.985)"
font-family="Ubuntu" font-size="11" font-weight="400" font-style="normal" 
>
</g>

<g fill="none" stroke="#000000" stroke-opacity="1" stroke-width="1" stroke-linecap="square" stroke-linejoin="bevel" transform="matrix(1.99976,0,0,1.99976,-0.00559933,179.979)"
font-family="Ubuntu" font-size="11" font-weight="400" font-style="normal" 
>
</g>

<g fill="none" stroke="#000000" stroke-opacity="1" stroke-width="1" stroke-linecap="square" stroke-linejoin="bevel" transform="matrix(1.99976,0,0,1.99976,-0.00559933,179.979)"
font-family="Ubuntu" font-size="11" font-weight="400" font-style="normal" 
>
</g>

<g fill="none" stroke="#000000" stroke-opacity="1" stroke-width="1" stroke-linecap="square" stroke-linejoin="bevel" transform="matrix(1.99976,0,0,1.99976,-0.00559933,179.979)"
font-family="Ubuntu" font-size="11" font-weight="400" font-style="normal" 
>
</g>

<g fill="none" stroke="#000000" stroke-opacity="1" stroke-width="1" stroke-linecap="square" stroke-linejoin="round" transform="matrix(1.99976,0,0,1.99976,-0.00559933,179.979)"
font-family="Ubuntu" font-size="11" font-weight="400" font-style="normal" 
>
<ellipse cx="423.62" cy="-45" rx="53.446" ry="17.5"/>
</g>

<g fill="none" stroke="#000000" stroke-opacity="1" stroke-width="1" stroke-linecap="square" stroke-linejoin="bevel" transform="matrix(1.99976,0,0,1.99976,-0.00559933,179.979)"
font-family="Ubuntu" font-size="11" font-weight="400" font-style="normal" 
>
</g>

<g fill="none" stroke="#000000" stroke-opacity="1" stroke-width="1" stroke-linecap="square" stroke-linejoin="bevel" transform="matrix(1.99976,0,0,1.99976,780.688,75.991)"
font-family="Ubuntu" font-size="11" font-weight="400" font-style="normal" 
>
</g>

<g fill="none" stroke="#000000" stroke-opacity="1" stroke-width="1" stroke-linecap="square" stroke-linejoin="bevel" transform="matrix(1.99976,0,0,1.99976,780.688,75.991)"
font-family="sans" font-size="11" font-weight="100" font-style="normal" 
>
</g>

<g fill="#000000" fill-opacity="1" stroke="#000000" stroke-opacity="1" stroke-width="1" stroke-linecap="square" stroke-linejoin="round" transform="matrix(1.99976,0,0,1.99976,780.688,75.991)"
font-family="sans" font-size="11" font-weight="100" font-style="normal" 
>
<path vector-effect="none" fill-rule="nonzero" d="M2.96875,2.98438 L3.53125,2.98438 L0.734375,12.0156 L0.171875,12.0156 L2.96875,2.98438 M8.35938,5.15625 L8.35938,5.70313 C8.00521,5.50521 7.78646,5.39583 7.70313,5.375 C7.45313,5.32292 7.14063,5.29167 6.76563,5.28125 C6.20313,5.28125 5.76042,5.39063 5.4375,5.60938 C5.1875,5.79688 5.0625,6.11458 5.0625,6.5625 C5.0625,6.875 5.18229,7.11458 5.42188,7.28125 C5.66146,7.46875 6.01042,7.61458 6.46875,7.71875 L6.8125,7.78125 C7.38542,7.90625 7.81771,8.08333 8.10938,8.3125 C8.45313,8.58333 8.63021,8.92708 8.64063,9.34375 C8.64063,9.90625 8.47396,10.349 8.14063,10.6719 C7.78646,10.9948 7.20833,11.1563 6.40625,11.1563 C5.96875,11.1563 5.63542,11.125 5.40625,11.0625 C5.125,10.9896 4.83333,10.8958 4.53125,10.7813 L4.53125,10.1563 C4.96875,10.4063 5.25,10.5521 5.375,10.5938 C5.72917,10.6875 6.08333,10.7344 6.4375,10.7344 C7.01042,10.7344 7.4375,10.6146 7.71875,10.375 C8,10.125 8.14063,9.80729 8.14063,9.42188 C8.14063,9.08854 8.04688,8.84896 7.85938,8.70313 C7.58854,8.48438 7.16146,8.30729 6.57813,8.17188 L6.23438,8.09375 C5.72396,7.96875 5.33854,7.80208 5.07813,7.59375 C4.74479,7.32292 4.57813,6.99479 4.57813,6.60938 C4.57813,5.98438 4.77865,5.53385 5.17969,5.25781 C5.58073,4.98177 6.07292,4.84375 6.65625,4.84375 C7.15625,4.84375 7.5,4.86979 7.6875,4.92188 C7.91667,4.98438 8.14063,5.0625 8.35938,5.15625 M15.3594,7.75 L15.3594,8.0625 L10.7969,8.0625 C10.7969,9.02083 10.9844,9.69792 11.3594,10.0938 C11.776,10.5208 12.3906,10.7344 13.2031,10.7344 C13.4219,10.7344 13.7083,10.6875 14.0625,10.5938 C14.4167,10.5 14.7708,10.3594 15.125,10.1719 L15.125,10.6875 C14.7708,10.8438 14.4089,10.9609 14.0391,11.0391 C13.6693,11.1172 13.375,11.1563 13.1563,11.1563 C12.2292,11.1563 11.5313,10.9063 11.0625,10.4063 C10.5521,9.875 10.2969,9.09375 10.2969,8.0625 C10.2969,6.98958 10.526,6.1875 10.9844,5.65625 C11.4635,5.11458 12.1302,4.84375 12.9844,4.84375 C13.7656,4.84375 14.3594,5.10417 14.7656,5.625 C15.1615,6.16667 15.3594,6.875 15.3594,7.75 M14.8594,7.64063 C14.8594,6.79688 14.6667,6.18229 14.2813,5.79688 C13.9688,5.45313 13.5365,5.28125 12.9844,5.28125 C12.3906,5.28125 11.8906,5.45833 11.4844,5.8125 C11.1094,6.14583 10.8854,6.75521 10.8125,7.64063 L14.8594,7.64063 M20.7031,5.40625 C20.6198,5.36458 20.5104,5.33333 20.375,5.3125 C20.25,5.29167 20.099,5.28125 19.9219,5.28125 C19.3073,5.28125 18.8021,5.50521 18.4063,5.95313 C18.0833,6.31771 17.9219,6.94271 17.9219,7.82813 L17.9219,11 L17.4375,11 L17.4375,4.98438 L17.9219,4.98438 L17.9219,6.10938 C18.0885,5.78646 18.3177,5.51563 18.6094,5.29688 C19.0052,4.99479 19.474,4.84375 20.0156,4.84375 C20.1615,4.84375 20.2865,4.84896 20.3906,4.85938 C20.4948,4.85938 20.599,4.86979 20.7031,4.89063 L20.7031,5.40625 M21.9375,4.98438 L22.4375,4.98438 L22.4375,11 L21.9375,11 L21.9375,4.98438 M21.9375,2.64063 L22.4375,2.64063 L22.4375,3.3125 L21.9375,3.3125 L21.9375,2.64063 M27.4063,7.60938 C26.6042,7.60938 26.0286,7.75 25.6797,8.03125 C25.3307,8.3125 25.1563,8.72396 25.1563,9.26563 C25.1563,9.79688 25.3021,10.1745 25.5938,10.3984 C25.8854,10.6224 26.2292,10.7344 26.625,10.7344 C27.375,10.7344 27.9167,10.4167 28.25,9.78125 C28.5833,9.13542 28.75,8.53125 28.75,7.96875 L28.75,7.60938 L27.4063,7.60938 M29.25,7.5625 L29.25,11 L28.75,11 L28.75,9.35938 C28.4792,10.1615 28.1146,10.6719 27.6563,10.8906 C27.3021,11.0677 26.9427,11.1563 26.5781,11.1563 C25.9844,11.1563 25.5156,10.9948 25.1719,10.6719 C24.8281,10.349 24.6563,9.8776 24.6563,9.25781 C24.6563,8.63802 24.8802,8.14063 25.3281,7.76563 C25.776,7.39063 26.5052,7.20313 27.5156,7.20313 L28.75,7.20313 L28.75,7.10938 C28.75,6.57813 28.5938,6.14063 28.2813,5.79688 C27.9896,5.45313 27.4948,5.28125 26.7969,5.28125 C26.4531,5.28125 26.1042,5.34375 25.75,5.46875 C25.5208,5.55208 25.2188,5.71875 24.8438,5.96875 L24.8438,5.4375 C25.1667,5.23958 25.4688,5.09896 25.75,5.01563 C26.1458,4.90104 26.526,4.84375 26.8906,4.84375 C27.6094,4.84375 28.1979,5.05729 28.6563,5.48438 C29.0521,5.84896 29.25,6.54167 29.25,7.5625 M31.7344,2.64063 L32.2188,2.64063 L32.2188,11 L31.7344,11 L31.7344,2.64063 M39.1406,13.1719 L39.1406,13.5938 L33.4219,13.5938 L33.4219,13.1719 L39.1406,13.1719 M44.8281,7.375 L44.8281,11 L44.3281,11 L44.3281,7.40625 C44.3281,6.625 44.2031,6.07552 43.9531,5.75781 C43.7031,5.4401 43.3333,5.28125 42.8438,5.28125 C42.2708,5.28125 41.7865,5.45313 41.3906,5.79688 C40.974,6.14063 40.7656,6.73958 40.7656,7.59375 L40.7656,11 L40.2813,11 L40.2813,4.98438 L40.7656,4.98438 L40.7656,6.10938 C40.9427,5.74479 41.1771,5.46875 41.4688,5.28125 C41.8854,4.98958 42.349,4.84375 42.8594,4.84375 C43.4635,4.84375 43.9427,5.04688 44.2969,5.45313 C44.651,5.84896 44.8281,6.48958 44.8281,7.375 M50.8281,6.01563 C50.474,5.52604 49.9896,5.28125 49.375,5.28125 C48.7604,5.28125 48.276,5.52604 47.9219,6.01563 C47.5677,6.49479 47.3906,7.15104 47.3906,7.98438 C47.3906,8.83854 47.5677,9.51042 47.9219,10 C48.276,10.4896 48.7604,10.7344 49.375,10.7344 C49.9896,10.7344 50.474,10.4896 50.8281,10 C51.1823,9.5 51.3594,8.82813 51.3594,7.98438 C51.3594,7.16146 51.1823,6.50521 50.8281,6.01563 M49.375,4.84375 C50.1354,4.84375 50.7396,5.13021 51.1875,5.70313 C51.6354,6.27604 51.8594,7.03646 51.8594,7.98438 C51.8594,8.97396 51.6354,9.75521 51.1875,10.3281 C50.7396,10.901 50.1354,11.1875 49.375,11.1875 C48.5938,11.1875 47.9792,10.901 47.5313,10.3281 C47.0938,9.75521 46.875,8.97396 46.875,7.98438 C46.875,7.02604 47.099,6.26302 47.5469,5.69531 C47.9948,5.1276 48.6042,4.84375 49.375,4.84375 M57.9688,6.35938 L57.9688,2.64063 L58.4375,2.64063 L58.4375,11 L57.9688,11 L57.9688,9.64063 C57.7396,10.1615 57.4896,10.5156 57.2188,10.7031 C56.8229,11.0052 56.4427,11.1563 56.0781,11.1563 C55.3698,11.1563 54.7786,10.8672 54.3047,10.2891 C53.8307,9.71094 53.5938,8.94792 53.5938,8 C53.5938,7.05208 53.8307,6.28906 54.3047,5.71094 C54.7786,5.13281 55.3698,4.84375 56.0781,4.84375 C56.4427,4.84375 56.8229,4.98958 57.2188,5.28125 C57.4896,5.47917 57.7396,5.83854 57.9688,6.35938 M54.7344,5.90625 C54.3177,6.32292 54.1094,7.02083 54.1094,8 C54.1094,8.97917 54.3177,9.67708 54.7344,10.0938 C55.151,10.5104 55.5885,10.7188 56.0469,10.7188 C56.4948,10.7188 56.9271,10.5104 57.3438,10.0938 C57.75,9.67708 57.9531,8.97917 57.9531,8 C57.9531,7.02083 57.75,6.32292 57.3438,5.90625 C56.9271,5.48958 56.4948,5.28125 56.0469,5.28125 C55.5885,5.28125 55.151,5.48958 54.7344,5.90625 M65.625,7.75 L65.625,8.0625 L61.0625,8.0625 C61.0625,9.02083 61.25,9.69792 61.625,10.0938 C62.0417,10.5208 62.6563,10.7344 63.4688,10.7344 C63.6875,10.7344 63.974,10.6875 64.3281,10.5938 C64.6823,10.5 65.0365,10.3594 65.3906,10.1719 L65.3906,10.6875 C65.0365,10.8438 64.6745,10.9609 64.3047,11.0391 C63.9349,11.1172 63.6406,11.1563 63.4219,11.1563 C62.4948,11.1563 61.7969,10.9063 61.3281,10.4063 C60.8177,9.875 60.5625,9.09375 60.5625,8.0625 C60.5625,6.98958 60.7917,6.1875 61.25,5.65625 C61.7292,5.11458 62.3958,4.84375 63.25,4.84375 C64.0313,4.84375 64.625,5.10417 65.0313,5.625 C65.4271,6.16667 65.625,6.875 65.625,7.75 M65.125,7.64063 C65.125,6.79688 64.9323,6.18229 64.5469,5.79688 C64.2344,5.45313 63.8021,5.28125 63.25,5.28125 C62.6563,5.28125 62.1563,5.45833 61.75,5.8125 C61.375,6.14583 61.151,6.75521 61.0781,7.64063 L65.125,7.64063"/>
</g>

<g fill="none" stroke="#000000" stroke-opacity="1" stroke-width="1" stroke-linecap="square" stroke-linejoin="bevel" transform="matrix(1.99976,0,0,1.99976,780.688,75.991)"
font-family="sans" font-size="11" font-weight="100" font-style="normal" 
>
</g>

<g fill="none" stroke="#000000" stroke-opacity="1" stroke-width="1" stroke-linecap="square" stroke-linejoin="bevel" transform="matrix(1.99976,0,0,1.99976,780.688,75.991)"
font-family="Ubuntu" font-size="11" font-weight="400" font-style="normal" 
>
</g>

<g fill="none" stroke="#000000" stroke-opacity="1" stroke-width="1" stroke-linecap="square" stroke-linejoin="bevel" transform="matrix(1.99976,0,0,1.99976,-0.00559933,179.979)"
font-family="Ubuntu" font-size="11" font-weight="400" font-style="normal" 
>
</g>

<g fill="none" stroke="#000000" stroke-opacity="1" stroke-width="1" stroke-linecap="square" stroke-linejoin="bevel" transform="matrix(1.99976,0,0,1.99976,-0.00559933,179.979)"
font-family="Ubuntu" font-size="11" font-weight="400" font-style="normal" 
>
</g>

<g fill="none" stroke="#000000" stroke-opacity="1" stroke-width="1" stroke-linecap="square" stroke-linejoin="bevel" transform="matrix(1.99976,0,0,1.99976,-0.00559933,179.979)"
font-family="Ubuntu" font-size="11" font-weight="400" font-style="normal" 
>
</g>

<g fill="none" stroke="#000000" stroke-opacity="1" stroke-width="1" stroke-linecap="square" stroke-linejoin="round" transform="matrix(1.99976,0,0,1.99976,-0.00559933,179.979)"
font-family="Ubuntu" font-size="11" font-weight="400" font-style="normal" 
>
<ellipse cx="129.34" cy="-18" rx="128.837" ry="17.5"/>
</g>

<g fill="none" stroke="#000000" stroke-opacity="1" stroke-width="1" stroke-linecap="square" stroke-linejoin="bevel" transform="matrix(1.99976,0,0,1.99976,-0.00559933,179.979)"
font-family="Ubuntu" font-size="11" font-weight="400" font-style="normal" 
>
</g>

<g fill="none" stroke="#000000" stroke-opacity="1" stroke-width="1" stroke-linecap="square" stroke-linejoin="bevel" transform="matrix(1.99976,0,0,1.99976,74.1968,129.985)"
font-family="Ubuntu" font-size="11" font-weight="400" font-style="normal" 
>
</g>

<g fill="none" stroke="#000000" stroke-opacity="1" stroke-width="1" stroke-linecap="square" stroke-linejoin="bevel" transform="matrix(1.99976,0,0,1.99976,74.1968,129.985)"
font-family="sans" font-size="11" font-weight="100" font-style="normal" 
>
</g>

<g fill="#000000" fill-opacity="1" stroke="#000000" stroke-opacity="1" stroke-width="1" stroke-linecap="square" stroke-linejoin="round" transform="matrix(1.99976,0,0,1.99976,74.1968,129.985)"
font-family="sans" font-size="11" font-weight="100" font-style="normal" 
>
<path vector-effect="none" fill-rule="nonzero" d="M2.96875,2.98438 L3.53125,2.98438 L0.734375,12.0156 L0.171875,12.0156 L2.96875,2.98438 M8.21875,5.40625 C8.13542,5.36458 8.02604,5.33333 7.89063,5.3125 C7.76563,5.29167 7.61458,5.28125 7.4375,5.28125 C6.82292,5.28125 6.31771,5.50521 5.92188,5.95313 C5.59896,6.31771 5.4375,6.94271 5.4375,7.82813 L5.4375,11 L4.95313,11 L4.95313,4.98438 L5.4375,4.98438 L5.4375,6.10938 C5.60417,5.78646 5.83333,5.51563 6.125,5.29688 C6.52083,4.99479 6.98958,4.84375 7.53125,4.84375 C7.67708,4.84375 7.80208,4.84896 7.90625,4.85938 C8.01042,4.85938 8.11458,4.86979 8.21875,4.89063 L8.21875,5.40625 M13.0469,6.01563 C12.6927,5.52604 12.2083,5.28125 11.5938,5.28125 C10.9792,5.28125 10.4948,5.52604 10.1406,6.01563 C9.78646,6.49479 9.60938,7.15104 9.60938,7.98438 C9.60938,8.83854 9.78646,9.51042 10.1406,10 C10.4948,10.4896 10.9792,10.7344 11.5938,10.7344 C12.2083,10.7344 12.6927,10.4896 13.0469,10 C13.401,9.5 13.5781,8.82813 13.5781,7.98438 C13.5781,7.16146 13.401,6.50521 13.0469,6.01563 M11.5938,4.84375 C12.3542,4.84375 12.9583,5.13021 13.4063,5.70313 C13.8542,6.27604 14.0781,7.03646 14.0781,7.98438 C14.0781,8.97396 13.8542,9.75521 13.4063,10.3281 C12.9583,10.901 12.3542,11.1875 11.5938,11.1875 C10.8125,11.1875 10.1979,10.901 9.75,10.3281 C9.3125,9.75521 9.09375,8.97396 9.09375,7.98438 C9.09375,7.02604 9.31771,6.26302 9.76563,5.69531 C10.2135,5.1276 10.8229,4.84375 11.5938,4.84375 M19.5938,5.15625 L19.5938,5.70313 C19.2396,5.50521 19.0208,5.39583 18.9375,5.375 C18.6875,5.32292 18.375,5.29167 18,5.28125 C17.4375,5.28125 16.9948,5.39063 16.6719,5.60938 C16.4219,5.79688 16.2969,6.11458 16.2969,6.5625 C16.2969,6.875 16.4167,7.11458 16.6563,7.28125 C16.8958,7.46875 17.2448,7.61458 17.7031,7.71875 L18.0469,7.78125 C18.6198,7.90625 19.0521,8.08333 19.3438,8.3125 C19.6875,8.58333 19.8646,8.92708 19.875,9.34375 C19.875,9.90625 19.7083,10.349 19.375,10.6719 C19.0208,10.9948 18.4427,11.1563 17.6406,11.1563 C17.2031,11.1563 16.8698,11.125 16.6406,11.0625 C16.3594,10.9896 16.0677,10.8958 15.7656,10.7813 L15.7656,10.1563 C16.2031,10.4063 16.4844,10.5521 16.6094,10.5938 C16.9635,10.6875 17.3177,10.7344 17.6719,10.7344 C18.2448,10.7344 18.6719,10.6146 18.9531,10.375 C19.2344,10.125 19.375,9.80729 19.375,9.42188 C19.375,9.08854 19.2813,8.84896 19.0938,8.70313 C18.8229,8.48438 18.3958,8.30729 17.8125,8.17188 L17.4688,8.09375 C16.9583,7.96875 16.5729,7.80208 16.3125,7.59375 C15.9792,7.32292 15.8125,6.99479 15.8125,6.60938 C15.8125,5.98438 16.013,5.53385 16.4141,5.25781 C16.8151,4.98177 17.3073,4.84375 17.8906,4.84375 C18.3906,4.84375 18.7344,4.86979 18.9219,4.92188 C19.151,4.98438 19.375,5.0625 19.5938,5.15625 M22.4219,3.28125 L22.4219,4.98438 L24.4531,4.98438 L24.4531,5.40625 L22.4219,5.40625 L22.4219,9.01563 C22.4219,9.47396 22.4792,9.79688 22.5938,9.98438 C22.8438,10.3802 23.2031,10.5781 23.6719,10.5781 L24.4531,10.5781 L24.4531,11 L23.6875,11 C23.1979,11 22.7813,10.8568 22.4375,10.5703 C22.0938,10.2839 21.9219,9.76563 21.9219,9.01563 L21.9219,5.40625 L21.2031,5.40625 L21.2031,4.98438 L21.9219,4.98438 L21.9219,3.28125 L22.4219,3.28125 M29.7969,6.01563 C29.4427,5.52604 28.9583,5.28125 28.3438,5.28125 C27.7292,5.28125 27.2448,5.52604 26.8906,6.01563 C26.5365,6.49479 26.3594,7.15104 26.3594,7.98438 C26.3594,8.83854 26.5365,9.51042 26.8906,10 C27.2448,10.4896 27.7292,10.7344 28.3438,10.7344 C28.9583,10.7344 29.4427,10.4896 29.7969,10 C30.151,9.5 30.3281,8.82813 30.3281,7.98438 C30.3281,7.16146 30.151,6.50521 29.7969,6.01563 M28.3438,4.84375 C29.1042,4.84375 29.7083,5.13021 30.1563,5.70313 C30.6042,6.27604 30.8281,7.03646 30.8281,7.98438 C30.8281,8.97396 30.6042,9.75521 30.1563,10.3281 C29.7083,10.901 29.1042,11.1875 28.3438,11.1875 C27.5625,11.1875 26.9479,10.901 26.5,10.3281 C26.0625,9.75521 25.8438,8.97396 25.8438,7.98438 C25.8438,7.02604 26.0677,6.26302 26.5156,5.69531 C26.9635,5.1276 27.5729,4.84375 28.3438,4.84375 M33.4219,9.64063 L33.4219,13.2813 L32.9375,13.2813 L32.9375,4.98438 L33.4219,4.98438 L33.4219,6.35938 C33.651,5.83854 33.8958,5.47917 34.1563,5.28125 C34.5625,4.98958 34.9479,4.84375 35.3125,4.84375 C36.0208,4.84375 36.612,5.13281 37.0859,5.71094 C37.5599,6.28906 37.7969,7.05208 37.7969,8 C37.7969,8.94792 37.5599,9.71094 37.0859,10.2891 C36.612,10.8672 36.0208,11.1563 35.3125,11.1563 C34.9479,11.1563 34.5625,11.0052 34.1563,10.7031 C33.8958,10.5156 33.651,10.1615 33.4219,9.64063 M36.6563,10.0938 C37.0729,9.67708 37.2813,8.97917 37.2813,8 C37.2813,7.02083 37.0729,6.32292 36.6563,5.90625 C36.2396,5.48958 35.8021,5.28125 35.3438,5.28125 C34.8958,5.28125 34.4635,5.48958 34.0469,5.90625 C33.6406,6.32292 33.4375,7.02083 33.4375,8 C33.4375,8.97917 33.6406,9.67708 34.0469,10.0938 C34.4635,10.5104 34.8958,10.7188 35.3438,10.7188 C35.8021,10.7188 36.2396,10.5104 36.6563,10.0938 M39.8906,4.98438 L40.3906,4.98438 L40.3906,11 L39.8906,11 L39.8906,4.98438 M39.8906,2.64063 L40.3906,2.64063 L40.3906,3.3125 L39.8906,3.3125 L39.8906,2.64063 M47.0625,5.28125 L47.0625,5.79688 C46.7708,5.61979 46.526,5.5 46.3281,5.4375 C45.9948,5.33333 45.6771,5.28125 45.375,5.28125 C44.5104,5.28125 43.8906,5.5026 43.5156,5.94531 C43.1406,6.38802 42.9531,7.07292 42.9531,8 C42.9531,8.9375 43.1406,9.6276 43.5156,10.0703 C43.8906,10.513 44.5104,10.7344 45.375,10.7344 C45.6667,10.7344 45.9479,10.6927 46.2188,10.6094 C46.5104,10.5365 46.7917,10.4219 47.0625,10.2656 L47.0625,10.7656 C46.7917,10.901 46.5104,11 46.2188,11.0625 C45.9167,11.125 45.6198,11.1563 45.3281,11.1563 C44.4531,11.1563 43.7552,10.9167 43.2344,10.4375 C42.7135,9.95833 42.4531,9.14323 42.4531,7.99219 C42.4531,6.84115 42.7135,6.02604 43.2344,5.54688 C43.7552,5.07813 44.4531,4.84375 45.3281,4.84375 C45.6198,4.84375 45.9271,4.88542 46.25,4.96875 C46.5729,5.04167 46.8438,5.14583 47.0625,5.28125 M53.3594,13.1719 L53.3594,13.5938 L47.6406,13.5938 L47.6406,13.1719 L53.3594,13.1719 M54.8906,10.5625 L56.6563,10.5625 L56.6563,3.46875 L54.4531,4.35938 L54.4531,3.85938 L56.6406,2.98438 L57.1875,2.98438 L57.1875,10.5625 L58.9688,10.5625 L58.9688,11 L54.8906,11 L54.8906,10.5625 M61.875,10.5625 L63.6406,10.5625 L63.6406,3.46875 L61.4375,4.35938 L61.4375,3.85938 L63.625,2.98438 L64.1719,2.98438 L64.1719,10.5625 L65.9531,10.5625 L65.9531,11 L61.875,11 L61.875,10.5625 M72.2031,6.92969 C71.8698,6.53906 71.4193,6.34375 70.8516,6.34375 C70.2839,6.34375 69.8333,6.53906 69.5,6.92969 C69.1667,7.32031 69,7.85417 69,8.53125 C69,9.20833 69.1667,9.74219 69.5,10.1328 C69.8333,10.5234 70.2839,10.7188 70.8516,10.7188 C71.4193,10.7188 71.8698,10.5234 72.2031,10.1328 C72.5365,9.74219 72.7031,9.20833 72.7031,8.53125 C72.7031,7.85417 72.5365,7.32031 72.2031,6.92969 M72.8594,3.15625 L72.8594,3.73438 C72.6094,3.57813 72.3542,3.46354 72.0938,3.39063 C71.8438,3.30729 71.5938,3.26563 71.3438,3.26563 C70.2813,3.26563 69.5365,3.79167 69.1094,4.84375 C68.9115,5.3125 68.8229,6.11979 68.8438,7.26563 C69.0208,6.86979 69.25,6.5625 69.5313,6.34375 C69.8958,6.05208 70.3594,5.90625 70.9219,5.90625 C71.5885,5.90625 72.1458,6.14063 72.5938,6.60938 C73.0417,7.08854 73.2656,7.69271 73.2656,8.42188 C73.2656,9.24479 73.0469,9.90625 72.6094,10.4063 C72.1719,10.9063 71.599,11.1563 70.8906,11.1563 C70.0469,11.1563 69.401,10.8021 68.9531,10.0938 C68.5052,9.375 68.2813,8.34375 68.2813,7 C68.2813,5.5625 68.5573,4.50521 69.1094,3.82813 C69.651,3.16146 70.3854,2.82813 71.3125,2.82813 C71.5625,2.82813 71.8125,2.85938 72.0625,2.92188 C72.3125,2.97396 72.5781,3.05208 72.8594,3.15625 M75.6875,10.8281 L75.6875,10.2656 C75.9375,10.4115 76.1875,10.526 76.4375,10.6094 C76.6875,10.6823 76.9375,10.7188 77.1875,10.7188 C78.25,10.7188 78.9948,10.1979 79.4219,9.15625 C79.6198,8.67708 79.7083,7.86979 79.6875,6.73438 C79.5104,7.13021 79.2813,7.4375 79,7.65625 C78.6354,7.94792 78.1771,8.09375 77.625,8.09375 C76.9479,8.09375 76.3854,7.85417 75.9375,7.375 C75.4896,6.90625 75.2656,6.30208 75.2656,5.5625 C75.2656,4.73958 75.4844,4.07813 75.9219,3.57813 C76.3698,3.07813 76.9427,2.82813 77.6406,2.82813 C78.4844,2.82813 79.1302,3.1875 79.5781,3.90625 C80.026,4.61458 80.25,5.64583 80.25,7 C80.25,8.4375 79.974,9.48958 79.4219,10.1563 C78.8802,10.8229 78.1458,11.1563 77.2188,11.1563 C76.9688,11.1563 76.7188,11.1302 76.4688,11.0781 C76.2188,11.026 75.9583,10.9427 75.6875,10.8281 M76.3281,7.05469 C76.6615,7.44531 77.112,7.64063 77.6797,7.64063 C78.2474,7.64063 78.6979,7.44531 79.0313,7.05469 C79.3646,6.66406 79.5313,6.13021 79.5313,5.45313 C79.5313,4.77604 79.3646,4.24219 79.0313,3.85156 C78.6979,3.46094 78.2474,3.26563 77.6797,3.26563 C77.112,3.26563 76.6615,3.46094 76.3281,3.85156 C75.9948,4.24219 75.8281,4.77604 75.8281,5.45313 C75.8281,6.13021 75.9948,6.66406 76.3281,7.05469 M85.6563,6.67188 C86.0833,6.77604 86.4219,7.01042 86.6719,7.375 C86.9115,7.71875 87.0313,8.15104 87.0313,8.67188 C87.0313,9.46354 86.8047,10.0755 86.3516,10.5078 C85.8984,10.9401 85.1719,11.1563 84.1719,11.1563 C83.8281,11.1563 83.4792,11.1042 83.125,11 C82.7708,10.8958 82.4063,10.7292 82.0313,10.5 L82.0313,9.92188 C82.3333,10.1823 82.6615,10.3802 83.0156,10.5156 C83.3698,10.651 83.7344,10.7188 84.1094,10.7188 C84.8802,10.7188 85.4688,10.5417 85.875,10.1875 C86.2813,9.84375 86.4844,9.33854 86.4844,8.67188 C86.4844,8.13021 86.2969,7.70313 85.9219,7.39063 C85.5469,7.08854 85.0208,6.9375 84.3438,6.9375 L83.4063,6.9375 L83.4063,6.48438 L84.3906,6.48438 C85.0052,6.48438 85.4792,6.35938 85.8125,6.10938 C86.1354,5.85938 86.2969,5.5 86.2969,5.03125 C86.2969,4.46875 86.1302,4.03646 85.7969,3.73438 C85.4531,3.43229 84.9688,3.28125 84.3438,3.28125 C84.0521,3.28125 83.7344,3.33333 83.3906,3.4375 C83.0469,3.54167 82.6719,3.70313 82.2656,3.92188 L82.2656,3.375 C82.6823,3.19792 83.0677,3.06771 83.4219,2.98438 C83.7865,2.89063 84.125,2.83854 84.4375,2.82813 C85.2604,2.82813 85.8698,3.01563 86.2656,3.39063 C86.651,3.76563 86.8438,4.27604 86.8438,4.92188 C86.8438,5.33854 86.7396,5.70833 86.5313,6.03125 C86.3333,6.34375 86.0417,6.55729 85.6563,6.67188 M93.7813,13.1719 L93.7813,13.5938 L88.0625,13.5938 L88.0625,13.1719 L93.7813,13.1719 M95.3125,10.5625 L97.0781,10.5625 L97.0781,3.46875 L94.875,4.35938 L94.875,3.85938 L97.0625,2.98438 L97.6094,2.98438 L97.6094,10.5625 L99.3906,10.5625 L99.3906,11 L95.3125,11 L95.3125,10.5625 M102.063,2.98438 L105.859,2.98438 L105.859,3.42188 L102.594,3.42188 L102.594,6.10938 C102.76,6.04688 102.922,6 103.078,5.96875 C103.234,5.9375 103.464,5.92188 103.766,5.92188 C104.589,5.92188 105.24,6.15104 105.719,6.60938 C106.198,7.05729 106.438,7.66146 106.438,8.42188 C106.438,9.28646 106.188,9.95833 105.688,10.4375 C105.198,10.9167 104.505,11.1563 103.609,11.1563 C103.318,11.1563 103.016,11.1302 102.703,11.0781 C102.391,11.026 102.068,10.9531 101.734,10.8594 L101.734,10.3125 C102.016,10.4375 102.307,10.5365 102.609,10.6094 C102.911,10.6719 103.229,10.7031 103.563,10.7031 C104.271,10.7031 104.839,10.5 105.266,10.0938 C105.693,9.6875 105.906,9.13021 105.906,8.42188 C105.906,7.78646 105.698,7.28646 105.281,6.92188 C104.865,6.54688 104.302,6.35938 103.594,6.35938 C103.448,6.35938 103.229,6.40104 102.938,6.48438 C102.656,6.55729 102.365,6.67708 102.063,6.84375 L102.063,2.98438 M111.141,7 C110.536,7 110.063,7.16667 109.719,7.5 C109.385,7.83333 109.219,8.28906 109.219,8.86719 C109.219,9.44531 109.385,9.90104 109.719,10.2344 C110.063,10.5677 110.534,10.7344 111.133,10.7344 C111.732,10.7344 112.203,10.5677 112.547,10.2344 C112.901,9.90104 113.078,9.44792 113.078,8.875 C113.078,8.29167 112.906,7.83333 112.563,7.5 C112.219,7.16667 111.745,7 111.141,7 M110.047,6.73438 C109.703,6.59896 109.422,6.38021 109.203,6.07813 C108.964,5.76563 108.844,5.38021 108.844,4.92188 C108.844,4.27604 109.049,3.76563 109.461,3.39063 C109.872,3.01563 110.432,2.82813 111.141,2.82813 C111.849,2.82813 112.406,3.01563 112.813,3.39063 C113.219,3.76563 113.422,4.27604 113.422,4.92188 C113.422,5.39063 113.307,5.77604 113.078,6.07813 C112.839,6.39063 112.557,6.60938 112.234,6.73438 C112.63,6.85938 112.953,7.09375 113.203,7.4375 C113.464,7.79167 113.594,8.22917 113.594,8.75 C113.594,9.52083 113.385,10.1146 112.969,10.5313 C112.542,10.9479 111.932,11.1563 111.141,11.1563 C110.349,11.1563 109.74,10.9479 109.313,10.5313 C108.885,10.1146 108.672,9.52083 108.672,8.75 C108.672,8.22917 108.802,7.79167 109.063,7.4375 C109.354,7.08333 109.682,6.84896 110.047,6.73438 M109.852,3.71094 C109.544,3.9974 109.391,4.40104 109.391,4.92188 C109.391,5.44271 109.544,5.84896 109.852,6.14063 C110.159,6.43229 110.589,6.57813 111.141,6.57813 C111.682,6.57813 112.109,6.43229 112.422,6.14063 C112.734,5.84896 112.891,5.44271 112.891,4.92188 C112.891,4.40104 112.734,4 112.422,3.71875 C112.109,3.42708 111.682,3.28125 111.141,3.28125 C110.589,3.28125 110.159,3.42448 109.852,3.71094 M116.266,10.5625 L118.031,10.5625 L118.031,3.46875 L115.828,4.35938 L115.828,3.85938 L118.016,2.98438 L118.563,2.98438 L118.563,10.5625 L120.344,10.5625 L120.344,11 L116.266,11 L116.266,10.5625 M125.078,3.28125 C124.422,3.28125 123.932,3.59896 123.609,4.23438 C123.297,4.86979 123.141,5.78906 123.141,6.99219 C123.141,8.19531 123.297,9.11979 123.609,9.76563 C123.932,10.401 124.422,10.7188 125.078,10.7188 C125.755,10.7188 126.25,10.401 126.563,9.76563 C126.885,9.11979 127.047,8.19531 127.047,6.99219 C127.047,5.78906 126.885,4.86979 126.563,4.23438 C126.25,3.59896 125.755,3.28125 125.078,3.28125 M125.078,2.82813 C125.849,2.82813 126.458,3.14583 126.906,3.78125 C127.365,4.41667 127.594,5.48958 127.594,7 C127.594,8.51042 127.365,9.58333 126.906,10.2188 C126.458,10.8438 125.849,11.1563 125.078,11.1563 C124.328,11.1563 123.724,10.8438 123.266,10.2188 C122.818,9.58333 122.594,8.51042 122.594,7 C122.594,5.48958 122.818,4.41667 123.266,3.78125 C123.724,3.14583 124.328,2.82813 125.078,2.82813 M133.063,6.67188 C133.49,6.77604 133.828,7.01042 134.078,7.375 C134.318,7.71875 134.438,8.15104 134.438,8.67188 C134.438,9.46354 134.211,10.0755 133.758,10.5078 C133.305,10.9401 132.578,11.1563 131.578,11.1563 C131.234,11.1563 130.885,11.1042 130.531,11 C130.177,10.8958 129.813,10.7292 129.438,10.5 L129.438,9.92188 C129.74,10.1823 130.068,10.3802 130.422,10.5156 C130.776,10.651 131.141,10.7188 131.516,10.7188 C132.286,10.7188 132.875,10.5417 133.281,10.1875 C133.688,9.84375 133.891,9.33854 133.891,8.67188 C133.891,8.13021 133.703,7.70313 133.328,7.39063 C132.953,7.08854 132.427,6.9375 131.75,6.9375 L130.813,6.9375 L130.813,6.48438 L131.797,6.48438 C132.411,6.48438 132.885,6.35938 133.219,6.10938 C133.542,5.85938 133.703,5.5 133.703,5.03125 C133.703,4.46875 133.536,4.03646 133.203,3.73438 C132.859,3.43229 132.375,3.28125 131.75,3.28125 C131.458,3.28125 131.141,3.33333 130.797,3.4375 C130.453,3.54167 130.078,3.70313 129.672,3.92188 L129.672,3.375 C130.089,3.19792 130.474,3.06771 130.828,2.98438 C131.193,2.89063 131.531,2.83854 131.844,2.82813 C132.667,2.82813 133.276,3.01563 133.672,3.39063 C134.057,3.76563 134.25,4.27604 134.25,4.92188 C134.25,5.33854 134.146,5.70833 133.938,6.03125 C133.74,6.34375 133.448,6.55729 133.063,6.67188 M140.563,6.92969 C140.229,6.53906 139.779,6.34375 139.211,6.34375 C138.643,6.34375 138.193,6.53906 137.859,6.92969 C137.526,7.32031 137.359,7.85417 137.359,8.53125 C137.359,9.20833 137.526,9.74219 137.859,10.1328 C138.193,10.5234 138.643,10.7188 139.211,10.7188 C139.779,10.7188 140.229,10.5234 140.563,10.1328 C140.896,9.74219 141.063,9.20833 141.063,8.53125 C141.063,7.85417 140.896,7.32031 140.563,6.92969 M141.219,3.15625 L141.219,3.73438 C140.969,3.57813 140.714,3.46354 140.453,3.39063 C140.203,3.30729 139.953,3.26563 139.703,3.26563 C138.641,3.26563 137.896,3.79167 137.469,4.84375 C137.271,5.3125 137.182,6.11979 137.203,7.26563 C137.38,6.86979 137.609,6.5625 137.891,6.34375 C138.255,6.05208 138.719,5.90625 139.281,5.90625 C139.948,5.90625 140.505,6.14063 140.953,6.60938 C141.401,7.08854 141.625,7.69271 141.625,8.42188 C141.625,9.24479 141.406,9.90625 140.969,10.4063 C140.531,10.9063 139.958,11.1563 139.25,11.1563 C138.406,11.1563 137.76,10.8021 137.313,10.0938 C136.865,9.375 136.641,8.34375 136.641,7 C136.641,5.5625 136.917,4.50521 137.469,3.82813 C138.01,3.16146 138.745,2.82813 139.672,2.82813 C139.922,2.82813 140.172,2.85938 140.422,2.92188 C140.672,2.97396 140.938,3.05208 141.219,3.15625 M147.031,6.67188 C147.458,6.77604 147.797,7.01042 148.047,7.375 C148.286,7.71875 148.406,8.15104 148.406,8.67188 C148.406,9.46354 148.18,10.0755 147.727,10.5078 C147.273,10.9401 146.547,11.1563 145.547,11.1563 C145.203,11.1563 144.854,11.1042 144.5,11 C144.146,10.8958 143.781,10.7292 143.406,10.5 L143.406,9.92188 C143.708,10.1823 144.036,10.3802 144.391,10.5156 C144.745,10.651 145.109,10.7188 145.484,10.7188 C146.255,10.7188 146.844,10.5417 147.25,10.1875 C147.656,9.84375 147.859,9.33854 147.859,8.67188 C147.859,8.13021 147.672,7.70313 147.297,7.39063 C146.922,7.08854 146.396,6.9375 145.719,6.9375 L144.781,6.9375 L144.781,6.48438 L145.766,6.48438 C146.38,6.48438 146.854,6.35938 147.188,6.10938 C147.51,5.85938 147.672,5.5 147.672,5.03125 C147.672,4.46875 147.505,4.03646 147.172,3.73438 C146.828,3.43229 146.344,3.28125 145.719,3.28125 C145.427,3.28125 145.109,3.33333 144.766,3.4375 C144.422,3.54167 144.047,3.70313 143.641,3.92188 L143.641,3.375 C144.057,3.19792 144.443,3.06771 144.797,2.98438 C145.161,2.89063 145.5,2.83854 145.813,2.82813 C146.635,2.82813 147.245,3.01563 147.641,3.39063 C148.026,3.76563 148.219,4.27604 148.219,4.92188 C148.219,5.33854 148.115,5.70833 147.906,6.03125 C147.708,6.34375 147.417,6.55729 147.031,6.67188 M153.016,3.28125 C152.359,3.28125 151.87,3.59896 151.547,4.23438 C151.234,4.86979 151.078,5.78906 151.078,6.99219 C151.078,8.19531 151.234,9.11979 151.547,9.76563 C151.87,10.401 152.359,10.7188 153.016,10.7188 C153.693,10.7188 154.188,10.401 154.5,9.76563 C154.823,9.11979 154.984,8.19531 154.984,6.99219 C154.984,5.78906 154.823,4.86979 154.5,4.23438 C154.188,3.59896 153.693,3.28125 153.016,3.28125 M153.016,2.82813 C153.786,2.82813 154.396,3.14583 154.844,3.78125 C155.302,4.41667 155.531,5.48958 155.531,7 C155.531,8.51042 155.302,9.58333 154.844,10.2188 C154.396,10.8438 153.786,11.1563 153.016,11.1563 C152.266,11.1563 151.661,10.8438 151.203,10.2188 C150.755,9.58333 150.531,8.51042 150.531,7 C150.531,5.48958 150.755,4.41667 151.203,3.78125 C151.661,3.14583 152.266,2.82813 153.016,2.82813 M157.859,10.5625 L162.422,10.5625 L162.422,11 L157.297,11 L157.297,10.4375 L159.297,8.35938 C159.786,7.85938 160.234,7.39583 160.641,6.96875 C161.005,6.57292 161.25,6.26563 161.375,6.04688 C161.5,5.82813 161.563,5.53646 161.563,5.17188 C161.563,4.55729 161.375,4.0625 161,3.6875 C160.729,3.41667 160.286,3.28125 159.672,3.28125 C159.307,3.28125 158.896,3.38542 158.438,3.59375 C158.229,3.6875 157.88,3.89063 157.391,4.20313 L157.391,3.64063 C157.599,3.49479 157.901,3.32813 158.297,3.14063 C158.755,2.94271 159.208,2.83854 159.656,2.82813 C160.344,2.82813 160.922,3.01042 161.391,3.375 C161.849,3.72917 162.078,4.3125 162.078,5.125 C162.078,5.45833 162.016,5.77083 161.891,6.0625 C161.745,6.40625 161.521,6.75521 161.219,7.10938 C161.125,7.21354 160.839,7.51042 160.359,8 L157.859,10.5625 M164.844,10.5625 L169.406,10.5625 L169.406,11 L164.281,11 L164.281,10.4375 L166.281,8.35938 C166.771,7.85938 167.219,7.39583 167.625,6.96875 C167.99,6.57292 168.234,6.26563 168.359,6.04688 C168.484,5.82813 168.547,5.53646 168.547,5.17188 C168.547,4.55729 168.359,4.0625 167.984,3.6875 C167.714,3.41667 167.271,3.28125 166.656,3.28125 C166.292,3.28125 165.88,3.38542 165.422,3.59375 C165.214,3.6875 164.865,3.89063 164.375,4.20313 L164.375,3.64063 C164.583,3.49479 164.885,3.32813 165.281,3.14063 C165.74,2.94271 166.193,2.83854 166.641,2.82813 C167.328,2.82813 167.906,3.01042 168.375,3.375 C168.833,3.72917 169.063,4.3125 169.063,5.125 C169.063,5.45833 169,5.77083 168.875,6.0625 C168.729,6.40625 168.505,6.75521 168.203,7.10938 C168.109,7.21354 167.823,7.51042 167.344,8 L164.844,10.5625 M173.969,3.28125 C173.313,3.28125 172.823,3.59896 172.5,4.23438 C172.188,4.86979 172.031,5.78906 172.031,6.99219 C172.031,8.19531 172.188,9.11979 172.5,9.76563 C172.823,10.401 173.313,10.7188 173.969,10.7188 C174.646,10.7188 175.141,10.401 175.453,9.76563 C175.776,9.11979 175.938,8.19531 175.938,6.99219 C175.938,5.78906 175.776,4.86979 175.453,4.23438 C175.141,3.59896 174.646,3.28125 173.969,3.28125 M173.969,2.82813 C174.74,2.82813 175.349,3.14583 175.797,3.78125 C176.255,4.41667 176.484,5.48958 176.484,7 C176.484,8.51042 176.255,9.58333 175.797,10.2188 C175.349,10.8438 174.74,11.1563 173.969,11.1563 C173.219,11.1563 172.615,10.8438 172.156,10.2188 C171.708,9.58333 171.484,8.51042 171.484,7 C171.484,5.48958 171.708,4.41667 172.156,3.78125 C172.615,3.14583 173.219,2.82813 173.969,2.82813 M181.953,6.67188 C182.38,6.77604 182.719,7.01042 182.969,7.375 C183.208,7.71875 183.328,8.15104 183.328,8.67188 C183.328,9.46354 183.102,10.0755 182.648,10.5078 C182.195,10.9401 181.469,11.1563 180.469,11.1563 C180.125,11.1563 179.776,11.1042 179.422,11 C179.068,10.8958 178.703,10.7292 178.328,10.5 L178.328,9.92188 C178.63,10.1823 178.958,10.3802 179.313,10.5156 C179.667,10.651 180.031,10.7188 180.406,10.7188 C181.177,10.7188 181.766,10.5417 182.172,10.1875 C182.578,9.84375 182.781,9.33854 182.781,8.67188 C182.781,8.13021 182.594,7.70313 182.219,7.39063 C181.844,7.08854 181.318,6.9375 180.641,6.9375 L179.703,6.9375 L179.703,6.48438 L180.688,6.48438 C181.302,6.48438 181.776,6.35938 182.109,6.10938 C182.432,5.85938 182.594,5.5 182.594,5.03125 C182.594,4.46875 182.427,4.03646 182.094,3.73438 C181.75,3.43229 181.266,3.28125 180.641,3.28125 C180.349,3.28125 180.031,3.33333 179.688,3.4375 C179.344,3.54167 178.969,3.70313 178.563,3.92188 L178.563,3.375 C178.979,3.19792 179.365,3.06771 179.719,2.98438 C180.083,2.89063 180.422,2.83854 180.734,2.82813 C181.557,2.82813 182.167,3.01563 182.563,3.39063 C182.948,3.76563 183.141,4.27604 183.141,4.92188 C183.141,5.33854 183.036,5.70833 182.828,6.03125 C182.63,6.34375 182.339,6.55729 181.953,6.67188 "/>
</g>

<g fill="none" stroke="#000000" stroke-opacity="1" stroke-width="1" stroke-linecap="square" stroke-linejoin="bevel" transform="matrix(1.99976,0,0,1.99976,74.1968,129.985)"
font-family="sans" font-size="11" font-weight="100" font-style="normal" 
>
</g>

<g fill="none" stroke="#000000" stroke-opacity="1" stroke-width="1" stroke-linecap="square" stroke-linejoin="bevel" transform="matrix(1.99976,0,0,1.99976,74.1968,129.985)"
font-family="Ubuntu" font-size="11" font-weight="400" font-style="normal" 
>
</g>

<g fill="none" stroke="#000000" stroke-opacity="1" stroke-width="1" stroke-linecap="square" stroke-linejoin="bevel" transform="matrix(1.99976,0,0,1.99976,-0.00559933,179.979)"
font-family="Ubuntu" font-size="11" font-weight="400" font-style="normal" 
>
</g>

<g fill="none" stroke="#000000" stroke-opacity="1" stroke-width="1" stroke-linecap="square" stroke-linejoin="bevel" transform="matrix(1.99976,0,0,1.99976,-0.00559933,179.979)"
font-family="Ubuntu" font-size="11" font-weight="400" font-style="normal" 
>
</g>

<g fill="none" stroke="#000000" stroke-opacity="1" stroke-width="1" stroke-linecap="square" stroke-linejoin="bevel" transform="matrix(1.99976,0,0,1.99976,-0.00559933,179.979)"
font-family="Ubuntu" font-size="11" font-weight="400" font-style="normal" 
>
</g>

<g fill="none" stroke="#000000" stroke-opacity="1" stroke-width="1" stroke-linecap="square" stroke-linejoin="round" transform="matrix(1.99976,0,0,1.99976,-0.00559933,179.979)"
font-family="Ubuntu" font-size="11" font-weight="400" font-style="normal" 
>
<rect x="492.069" y="-35.5" width="83.0024" height="35"/>
</g>

<g fill="none" stroke="#000000" stroke-opacity="1" stroke-width="1" stroke-linecap="square" stroke-linejoin="bevel" transform="matrix(1.99976,0,0,1.99976,-0.00559933,179.979)"
font-family="Ubuntu" font-size="11" font-weight="400" font-style="normal" 
>
</g>

<g fill="none" stroke="#000000" stroke-opacity="1" stroke-width="1" stroke-linecap="square" stroke-linejoin="bevel" transform="matrix(1.99976,0,0,1.99976,996.657,129.985)"
font-family="Ubuntu" font-size="11" font-weight="400" font-style="normal" 
>
</g>

<g fill="none" stroke="#000000" stroke-opacity="1" stroke-width="1" stroke-linecap="square" stroke-linejoin="bevel" transform="matrix(1.99976,0,0,1.99976,996.657,129.985)"
font-family="sans" font-size="11" font-weight="100" font-style="normal" 
>
</g>

<g fill="#000000" fill-opacity="1" stroke="#000000" stroke-opacity="1" stroke-width="1" stroke-linecap="square" stroke-linejoin="round" transform="matrix(1.99976,0,0,1.99976,996.657,129.985)"
font-family="sans" font-size="11" font-weight="100" font-style="normal" 
>
<path vector-effect="none" fill-rule="nonzero" d="M2.96875,2.98438 L3.53125,2.98438 L0.734375,12.0156 L0.171875,12.0156 L2.96875,2.98438 M8.35938,5.15625 L8.35938,5.70313 C8.00521,5.50521 7.78646,5.39583 7.70313,5.375 C7.45313,5.32292 7.14063,5.29167 6.76563,5.28125 C6.20313,5.28125 5.76042,5.39063 5.4375,5.60938 C5.1875,5.79688 5.0625,6.11458 5.0625,6.5625 C5.0625,6.875 5.18229,7.11458 5.42188,7.28125 C5.66146,7.46875 6.01042,7.61458 6.46875,7.71875 L6.8125,7.78125 C7.38542,7.90625 7.81771,8.08333 8.10938,8.3125 C8.45313,8.58333 8.63021,8.92708 8.64063,9.34375 C8.64063,9.90625 8.47396,10.349 8.14063,10.6719 C7.78646,10.9948 7.20833,11.1563 6.40625,11.1563 C5.96875,11.1563 5.63542,11.125 5.40625,11.0625 C5.125,10.9896 4.83333,10.8958 4.53125,10.7813 L4.53125,10.1563 C4.96875,10.4063 5.25,10.5521 5.375,10.5938 C5.72917,10.6875 6.08333,10.7344 6.4375,10.7344 C7.01042,10.7344 7.4375,10.6146 7.71875,10.375 C8,10.125 8.14063,9.80729 8.14063,9.42188 C8.14063,9.08854 8.04688,8.84896 7.85938,8.70313 C7.58854,8.48438 7.16146,8.30729 6.57813,8.17188 L6.23438,8.09375 C5.72396,7.96875 5.33854,7.80208 5.07813,7.59375 C4.74479,7.32292 4.57813,6.99479 4.57813,6.60938 C4.57813,5.98438 4.77865,5.53385 5.17969,5.25781 C5.58073,4.98177 6.07292,4.84375 6.65625,4.84375 C7.15625,4.84375 7.5,4.86979 7.6875,4.92188 C7.91667,4.98438 8.14063,5.0625 8.35938,5.15625 M15.3594,7.75 L15.3594,8.0625 L10.7969,8.0625 C10.7969,9.02083 10.9844,9.69792 11.3594,10.0938 C11.776,10.5208 12.3906,10.7344 13.2031,10.7344 C13.4219,10.7344 13.7083,10.6875 14.0625,10.5938 C14.4167,10.5 14.7708,10.3594 15.125,10.1719 L15.125,10.6875 C14.7708,10.8438 14.4089,10.9609 14.0391,11.0391 C13.6693,11.1172 13.375,11.1563 13.1563,11.1563 C12.2292,11.1563 11.5313,10.9063 11.0625,10.4063 C10.5521,9.875 10.2969,9.09375 10.2969,8.0625 C10.2969,6.98958 10.526,6.1875 10.9844,5.65625 C11.4635,5.11458 12.1302,4.84375 12.9844,4.84375 C13.7656,4.84375 14.3594,5.10417 14.7656,5.625 C15.1615,6.16667 15.3594,6.875 15.3594,7.75 M14.8594,7.64063 C14.8594,6.79688 14.6667,6.18229 14.2813,5.79688 C13.9688,5.45313 13.5365,5.28125 12.9844,5.28125 C12.3906,5.28125 11.8906,5.45833 11.4844,5.8125 C11.1094,6.14583 10.8854,6.75521 10.8125,7.64063 L14.8594,7.64063 M21.9844,7.375 L21.9844,11 L21.4844,11 L21.4844,7.40625 C21.4844,6.625 21.3594,6.07552 21.1094,5.75781 C20.8594,5.4401 20.4896,5.28125 20,5.28125 C19.4271,5.28125 18.9427,5.45313 18.5469,5.79688 C18.1302,6.14063 17.9219,6.73958 17.9219,7.59375 L17.9219,11 L17.4375,11 L17.4375,4.98438 L17.9219,4.98438 L17.9219,6.10938 C18.099,5.74479 18.3333,5.46875 18.625,5.28125 C19.0417,4.98958 19.5052,4.84375 20.0156,4.84375 C20.6198,4.84375 21.099,5.04688 21.4531,5.45313 C21.8073,5.84896 21.9844,6.48958 21.9844,7.375 M27.8125,5.15625 L27.8125,5.70313 C27.4583,5.50521 27.2396,5.39583 27.1563,5.375 C26.9063,5.32292 26.5938,5.29167 26.2188,5.28125 C25.6563,5.28125 25.2135,5.39063 24.8906,5.60938 C24.6406,5.79688 24.5156,6.11458 24.5156,6.5625 C24.5156,6.875 24.6354,7.11458 24.875,7.28125 C25.1146,7.46875 25.4635,7.61458 25.9219,7.71875 L26.2656,7.78125 C26.8385,7.90625 27.2708,8.08333 27.5625,8.3125 C27.9063,8.58333 28.0833,8.92708 28.0938,9.34375 C28.0938,9.90625 27.9271,10.349 27.5938,10.6719 C27.2396,10.9948 26.6615,11.1563 25.8594,11.1563 C25.4219,11.1563 25.0885,11.125 24.8594,11.0625 C24.5781,10.9896 24.2865,10.8958 23.9844,10.7813 L23.9844,10.1563 C24.4219,10.4063 24.7031,10.5521 24.8281,10.5938 C25.1823,10.6875 25.5365,10.7344 25.8906,10.7344 C26.4635,10.7344 26.8906,10.6146 27.1719,10.375 C27.4531,10.125 27.5938,9.80729 27.5938,9.42188 C27.5938,9.08854 27.5,8.84896 27.3125,8.70313 C27.0417,8.48438 26.6146,8.30729 26.0313,8.17188 L25.6875,8.09375 C25.1771,7.96875 24.7917,7.80208 24.5313,7.59375 C24.1979,7.32292 24.0313,6.99479 24.0313,6.60938 C24.0313,5.98438 24.2318,5.53385 24.6328,5.25781 C25.0339,4.98177 25.526,4.84375 26.1094,4.84375 C26.6094,4.84375 26.9531,4.86979 27.1406,4.92188 C27.3698,4.98438 27.5938,5.0625 27.8125,5.15625 M33.7031,6.01563 C33.349,5.52604 32.8646,5.28125 32.25,5.28125 C31.6354,5.28125 31.151,5.52604 30.7969,6.01563 C30.4427,6.49479 30.2656,7.15104 30.2656,7.98438 C30.2656,8.83854 30.4427,9.51042 30.7969,10 C31.151,10.4896 31.6354,10.7344 32.25,10.7344 C32.8646,10.7344 33.349,10.4896 33.7031,10 C34.0573,9.5 34.2344,8.82813 34.2344,7.98438 C34.2344,7.16146 34.0573,6.50521 33.7031,6.01563 M32.25,4.84375 C33.0104,4.84375 33.6146,5.13021 34.0625,5.70313 C34.5104,6.27604 34.7344,7.03646 34.7344,7.98438 C34.7344,8.97396 34.5104,9.75521 34.0625,10.3281 C33.6146,10.901 33.0104,11.1875 32.25,11.1875 C31.4688,11.1875 30.8542,10.901 30.4063,10.3281 C29.9688,9.75521 29.75,8.97396 29.75,7.98438 C29.75,7.02604 29.974,6.26302 30.4219,5.69531 C30.8698,5.1276 31.4792,4.84375 32.25,4.84375 M40.1094,5.40625 C40.026,5.36458 39.9167,5.33333 39.7813,5.3125 C39.6563,5.29167 39.5052,5.28125 39.3281,5.28125 C38.7135,5.28125 38.2083,5.50521 37.8125,5.95313 C37.4896,6.31771 37.3281,6.94271 37.3281,7.82813 L37.3281,11 L36.8438,11 L36.8438,4.98438 L37.3281,4.98438 L37.3281,6.10938 C37.4948,5.78646 37.724,5.51563 38.0156,5.29688 C38.4115,4.99479 38.8802,4.84375 39.4219,4.84375 C39.5677,4.84375 39.6927,4.84896 39.7969,4.85938 C39.901,4.85938 40.0052,4.86979 40.1094,4.89063 L40.1094,5.40625 M45.7188,13.1719 L45.7188,13.5938 L40,13.5938 L40,13.1719 L45.7188,13.1719 M50.8594,6.35938 L50.8594,2.64063 L51.3281,2.64063 L51.3281,11 L50.8594,11 L50.8594,9.64063 C50.6302,10.1615 50.3802,10.5156 50.1094,10.7031 C49.7135,11.0052 49.3333,11.1563 48.9688,11.1563 C48.2604,11.1563 47.6693,10.8672 47.1953,10.2891 C46.7214,9.71094 46.4844,8.94792 46.4844,8 C46.4844,7.05208 46.7214,6.28906 47.1953,5.71094 C47.6693,5.13281 48.2604,4.84375 48.9688,4.84375 C49.3333,4.84375 49.7135,4.98958 50.1094,5.28125 C50.3802,5.47917 50.6302,5.83854 50.8594,6.35938 M47.625,5.90625 C47.2083,6.32292 47,7.02083 47,8 C47,8.97917 47.2083,9.67708 47.625,10.0938 C48.0417,10.5104 48.4792,10.7188 48.9375,10.7188 C49.3854,10.7188 49.8177,10.5104 50.2344,10.0938 C50.6406,9.67708 50.8438,8.97917 50.8438,8 C50.8438,7.02083 50.6406,6.32292 50.2344,5.90625 C49.8177,5.48958 49.3854,5.28125 48.9375,5.28125 C48.4792,5.28125 48.0417,5.48958 47.625,5.90625 M56.2344,7.60938 C55.4323,7.60938 54.8568,7.75 54.5078,8.03125 C54.1589,8.3125 53.9844,8.72396 53.9844,9.26563 C53.9844,9.79688 54.1302,10.1745 54.4219,10.3984 C54.7135,10.6224 55.0573,10.7344 55.4531,10.7344 C56.2031,10.7344 56.7448,10.4167 57.0781,9.78125 C57.4115,9.13542 57.5781,8.53125 57.5781,7.96875 L57.5781,7.60938 L56.2344,7.60938 M58.0781,7.5625 L58.0781,11 L57.5781,11 L57.5781,9.35938 C57.3073,10.1615 56.9427,10.6719 56.4844,10.8906 C56.1302,11.0677 55.7708,11.1563 55.4063,11.1563 C54.8125,11.1563 54.3438,10.9948 54,10.6719 C53.6563,10.349 53.4844,9.8776 53.4844,9.25781 C53.4844,8.63802 53.7083,8.14063 54.1563,7.76563 C54.6042,7.39063 55.3333,7.20313 56.3438,7.20313 L57.5781,7.20313 L57.5781,7.10938 C57.5781,6.57813 57.4219,6.14063 57.1094,5.79688 C56.8177,5.45313 56.3229,5.28125 55.625,5.28125 C55.2813,5.28125 54.9323,5.34375 54.5781,5.46875 C54.349,5.55208 54.0469,5.71875 53.6719,5.96875 L53.6719,5.4375 C53.9948,5.23958 54.2969,5.09896 54.5781,5.01563 C54.974,4.90104 55.3542,4.84375 55.7188,4.84375 C56.4375,4.84375 57.026,5.05729 57.4844,5.48438 C57.8802,5.84896 58.0781,6.54167 58.0781,7.5625 M61.0781,3.28125 L61.0781,4.98438 L63.1094,4.98438 L63.1094,5.40625 L61.0781,5.40625 L61.0781,9.01563 C61.0781,9.47396 61.1354,9.79688 61.25,9.98438 C61.5,10.3802 61.8594,10.5781 62.3281,10.5781 L63.1094,10.5781 L63.1094,11 L62.3438,11 C61.8542,11 61.4375,10.8568 61.0938,10.5703 C60.75,10.2839 60.5781,9.76563 60.5781,9.01563 L60.5781,5.40625 L59.8594,5.40625 L59.8594,4.98438 L60.5781,4.98438 L60.5781,3.28125 L61.0781,3.28125 M67.2813,7.60938 C66.4792,7.60938 65.9036,7.75 65.5547,8.03125 C65.2057,8.3125 65.0313,8.72396 65.0313,9.26563 C65.0313,9.79688 65.1771,10.1745 65.4688,10.3984 C65.7604,10.6224 66.1042,10.7344 66.5,10.7344 C67.25,10.7344 67.7917,10.4167 68.125,9.78125 C68.4583,9.13542 68.625,8.53125 68.625,7.96875 L68.625,7.60938 L67.2813,7.60938 M69.125,7.5625 L69.125,11 L68.625,11 L68.625,9.35938 C68.3542,10.1615 67.9896,10.6719 67.5313,10.8906 C67.1771,11.0677 66.8177,11.1563 66.4531,11.1563 C65.8594,11.1563 65.3906,10.9948 65.0469,10.6719 C64.7031,10.349 64.5313,9.8776 64.5313,9.25781 C64.5313,8.63802 64.7552,8.14063 65.2031,7.76563 C65.651,7.39063 66.3802,7.20313 67.3906,7.20313 L68.625,7.20313 L68.625,7.10938 C68.625,6.57813 68.4688,6.14063 68.1563,5.79688 C67.8646,5.45313 67.3698,5.28125 66.6719,5.28125 C66.3281,5.28125 65.9792,5.34375 65.625,5.46875 C65.3958,5.55208 65.0938,5.71875 64.7188,5.96875 L64.7188,5.4375 C65.0417,5.23958 65.3438,5.09896 65.625,5.01563 C66.0208,4.90104 66.401,4.84375 66.7656,4.84375 C67.4844,4.84375 68.0729,5.05729 68.5313,5.48438 C68.9271,5.84896 69.125,6.54167 69.125,7.5625 "/>
</g>

<g fill="none" stroke="#000000" stroke-opacity="1" stroke-width="1" stroke-linecap="square" stroke-linejoin="bevel" transform="matrix(1.99976,0,0,1.99976,996.657,129.985)"
font-family="sans" font-size="11" font-weight="100" font-style="normal" 
>
</g>

<g fill="none" stroke="#000000" stroke-opacity="1" stroke-width="1" stroke-linecap="square" stroke-linejoin="bevel" transform="matrix(1.99976,0,0,1.99976,996.657,129.985)"
font-family="Ubuntu" font-size="11" font-weight="400" font-style="normal" 
>
</g>

<g fill="none" stroke="#000000" stroke-opacity="1" stroke-width="1" stroke-linecap="square" stroke-linejoin="bevel" transform="matrix(1.99976,0,0,1.99976,-0.00559933,179.979)"
font-family="Ubuntu" font-size="11" font-weight="400" font-style="normal" 
>
</g>

<g fill="none" stroke="#000000" stroke-opacity="1" stroke-width="1" stroke-linecap="square" stroke-linejoin="bevel" transform="matrix(1.99976,0,0,1.99976,-0.00559933,179.979)"
font-family="Ubuntu" font-size="11" font-weight="400" font-style="normal" 
>
</g>

<g fill="none" stroke="#000000" stroke-opacity="1" stroke-width="1" stroke-linecap="square" stroke-linejoin="bevel" transform="matrix(1.99976,0,0,1.99976,-0.00559933,179.979)"
font-family="Ubuntu" font-size="11" font-weight="400" font-style="normal" 
>
</g>

<g fill="none" stroke="#000000" stroke-opacity="1" stroke-width="1" stroke-linecap="square" stroke-linejoin="round" transform="matrix(1.99976,0,0,1.99976,-0.00559933,179.979)"
font-family="Ubuntu" font-size="11" font-weight="400" font-style="normal" 
>
<rect x="273.179" y="-89.5" width="82.0016" height="35"/>
</g>

<g fill="none" stroke="#000000" stroke-opacity="1" stroke-width="1" stroke-linecap="square" stroke-linejoin="bevel" transform="matrix(1.99976,0,0,1.99976,-0.00559933,179.979)"
font-family="Ubuntu" font-size="11" font-weight="400" font-style="normal" 
>
</g>

<g fill="none" stroke="#000000" stroke-opacity="1" stroke-width="1" stroke-linecap="square" stroke-linejoin="bevel" transform="matrix(1.99976,0,0,1.99976,562.834,21.9974)"
font-family="Ubuntu" font-size="11" font-weight="400" font-style="normal" 
>
</g>

<g fill="none" stroke="#000000" stroke-opacity="1" stroke-width="1" stroke-linecap="square" stroke-linejoin="bevel" transform="matrix(1.99976,0,0,1.99976,562.834,21.9974)"
font-family="sans" font-size="11" font-weight="100" font-style="normal" 
>
</g>

<g fill="#000000" fill-opacity="1" stroke="#000000" stroke-opacity="1" stroke-width="1" stroke-linecap="square" stroke-linejoin="round" transform="matrix(1.99976,0,0,1.99976,562.834,21.9974)"
font-family="sans" font-size="11" font-weight="100" font-style="normal" 
>
<path vector-effect="none" fill-rule="nonzero" d="M2.96875,2.98438 L3.53125,2.98438 L0.734375,12.0156 L0.171875,12.0156 L2.96875,2.98438 M4.40625,4.98438 L4.90625,4.98438 L6.32813,10.3438 L7.71875,4.98438 L8.35938,4.98438 L9.76563,10.375 L11.1719,4.98438 L11.6875,4.98438 L10.1094,11 L9.42188,11 L8.03125,5.71875 L6.65625,11 L5.98438,11 L4.40625,4.98438 M18.4844,7.375 L18.4844,11 L17.9844,11 L17.9844,7.40625 C17.9844,6.625 17.8542,6.07552 17.5938,5.75781 C17.3333,5.4401 16.9375,5.28125 16.4063,5.28125 C15.7917,5.28125 15.3073,5.45833 14.9531,5.8125 C14.599,6.16667 14.4219,6.76042 14.4219,7.59375 L14.4219,11 L13.9375,11 L13.9375,2.64063 L14.4219,2.64063 L14.4219,6.09375 C14.5365,5.79167 14.7448,5.52083 15.0469,5.28125 C15.3906,4.98958 15.8802,4.84375 16.5156,4.84375 C17.1198,4.84375 17.599,5.05729 17.9531,5.48438 C18.3073,5.91146 18.4844,6.54167 18.4844,7.375 M25.5938,7.75 L25.5938,8.0625 L21.0313,8.0625 C21.0313,9.02083 21.2188,9.69792 21.5938,10.0938 C22.0104,10.5208 22.625,10.7344 23.4375,10.7344 C23.6563,10.7344 23.9427,10.6875 24.2969,10.5938 C24.651,10.5 25.0052,10.3594 25.3594,10.1719 L25.3594,10.6875 C25.0052,10.8438 24.6432,10.9609 24.2734,11.0391 C23.9036,11.1172 23.6094,11.1563 23.3906,11.1563 C22.4635,11.1563 21.7656,10.9063 21.2969,10.4063 C20.7865,9.875 20.5313,9.09375 20.5313,8.0625 C20.5313,6.98958 20.7604,6.1875 21.2188,5.65625 C21.6979,5.11458 22.3646,4.84375 23.2188,4.84375 C24,4.84375 24.5938,5.10417 25,5.625 C25.3958,6.16667 25.5938,6.875 25.5938,7.75 M25.0938,7.64063 C25.0938,6.79688 24.901,6.18229 24.5156,5.79688 C24.2031,5.45313 23.7708,5.28125 23.2188,5.28125 C22.625,5.28125 22.125,5.45833 21.7188,5.8125 C21.3438,6.14583 21.1198,6.75521 21.0469,7.64063 L25.0938,7.64063 M32.3594,7.75 L32.3594,8.0625 L27.7969,8.0625 C27.7969,9.02083 27.9844,9.69792 28.3594,10.0938 C28.776,10.5208 29.3906,10.7344 30.2031,10.7344 C30.4219,10.7344 30.7083,10.6875 31.0625,10.5938 C31.4167,10.5 31.7708,10.3594 32.125,10.1719 L32.125,10.6875 C31.7708,10.8438 31.4089,10.9609 31.0391,11.0391 C30.6693,11.1172 30.375,11.1563 30.1563,11.1563 C29.2292,11.1563 28.5313,10.9063 28.0625,10.4063 C27.5521,9.875 27.2969,9.09375 27.2969,8.0625 C27.2969,6.98958 27.526,6.1875 27.9844,5.65625 C28.4635,5.11458 29.1302,4.84375 29.9844,4.84375 C30.7656,4.84375 31.3594,5.10417 31.7656,5.625 C32.1615,6.16667 32.3594,6.875 32.3594,7.75 M31.8594,7.64063 C31.8594,6.79688 31.6667,6.18229 31.2813,5.79688 C30.9688,5.45313 30.5365,5.28125 29.9844,5.28125 C29.3906,5.28125 28.8906,5.45833 28.4844,5.8125 C28.1094,6.14583 27.8854,6.75521 27.8125,7.64063 L31.8594,7.64063 M34.4375,2.64063 L34.9219,2.64063 L34.9219,11 L34.4375,11 L34.4375,2.64063 M41.8438,13.1719 L41.8438,13.5938 L36.125,13.5938 L36.125,13.1719 L41.8438,13.1719 M47.0938,5.28125 L47.0938,5.79688 C46.8021,5.61979 46.5573,5.5 46.3594,5.4375 C46.026,5.33333 45.7083,5.28125 45.4063,5.28125 C44.5417,5.28125 43.9219,5.5026 43.5469,5.94531 C43.1719,6.38802 42.9844,7.07292 42.9844,8 C42.9844,8.9375 43.1719,9.6276 43.5469,10.0703 C43.9219,10.513 44.5417,10.7344 45.4063,10.7344 C45.6979,10.7344 45.9792,10.6927 46.25,10.6094 C46.5417,10.5365 46.8229,10.4219 47.0938,10.2656 L47.0938,10.7656 C46.8229,10.901 46.5417,11 46.25,11.0625 C45.9479,11.125 45.651,11.1563 45.3594,11.1563 C44.4844,11.1563 43.7865,10.9167 43.2656,10.4375 C42.7448,9.95833 42.4844,9.14323 42.4844,7.99219 C42.4844,6.84115 42.7448,6.02604 43.2656,5.54688 C43.7865,5.07813 44.4844,4.84375 45.3594,4.84375 C45.651,4.84375 45.9583,4.88542 46.2813,4.96875 C46.6042,5.04167 46.875,5.14583 47.0938,5.28125 M53.3594,6.29688 C53.5469,5.80729 53.8385,5.44271 54.2344,5.20313 C54.6198,4.96354 55.0729,4.84375 55.5938,4.84375 C56.1146,4.84375 56.5313,5.02604 56.8438,5.39063 C57.1667,5.75521 57.3281,6.41667 57.3281,7.375 L57.3281,11 L56.8438,11 L56.8438,7.40625 C56.8438,6.57292 56.7292,6.01042 56.5,5.71875 C56.2708,5.42708 55.9635,5.28125 55.5781,5.28125 C55.026,5.28125 54.5417,5.44792 54.125,5.78125 C53.6563,6.15625 53.4219,6.76042 53.4219,7.59375 L53.4219,11 L52.9375,11 L52.9375,7.40625 C52.9375,6.60417 52.8255,6.04948 52.6016,5.74219 C52.3776,5.4349 52.0677,5.28125 51.6719,5.28125 C51.1198,5.28125 50.6354,5.45313 50.2188,5.79688 C49.75,6.16146 49.5156,6.76042 49.5156,7.59375 L49.5156,11 L49.0313,11 L49.0313,4.98438 L49.5156,4.98438 L49.5156,6.10938 C49.6927,5.71354 49.9688,5.40104 50.3438,5.17188 C50.7083,4.95313 51.1615,4.84375 51.7031,4.84375 C52.0573,4.84375 52.3958,4.95833 52.7188,5.1875 C52.9688,5.375 53.1823,5.74479 53.3594,6.29688 M63.7344,6.35938 L63.7344,2.64063 L64.2031,2.64063 L64.2031,11 L63.7344,11 L63.7344,9.64063 C63.5052,10.1615 63.2552,10.5156 62.9844,10.7031 C62.5885,11.0052 62.2083,11.1563 61.8438,11.1563 C61.1354,11.1563 60.5443,10.8672 60.0703,10.2891 C59.5964,9.71094 59.3594,8.94792 59.3594,8 C59.3594,7.05208 59.5964,6.28906 60.0703,5.71094 C60.5443,5.13281 61.1354,4.84375 61.8438,4.84375 C62.2083,4.84375 62.5885,4.98958 62.9844,5.28125 C63.2552,5.47917 63.5052,5.83854 63.7344,6.35938 M60.5,5.90625 C60.0833,6.32292 59.875,7.02083 59.875,8 C59.875,8.97917 60.0833,9.67708 60.5,10.0938 C60.9167,10.5104 61.3542,10.7188 61.8125,10.7188 C62.2604,10.7188 62.6927,10.5104 63.1094,10.0938 C63.5156,9.67708 63.7188,8.97917 63.7188,8 C63.7188,7.02083 63.5156,6.32292 63.1094,5.90625 C62.6927,5.48958 62.2604,5.28125 61.8125,5.28125 C61.3542,5.28125 60.9167,5.48958 60.5,5.90625 "/>
</g>

<g fill="none" stroke="#000000" stroke-opacity="1" stroke-width="1" stroke-linecap="square" stroke-linejoin="bevel" transform="matrix(1.99976,0,0,1.99976,562.834,21.9974)"
font-family="sans" font-size="11" font-weight="100" font-style="normal" 
>
</g>

<g fill="none" stroke="#000000" stroke-opacity="1" stroke-width="1" stroke-linecap="square" stroke-linejoin="bevel" transform="matrix(1.99976,0,0,1.99976,562.834,21.9974)"
font-family="Ubuntu" font-size="11" font-weight="400" font-style="normal" 
>
</g>

<g fill="none" stroke="#000000" stroke-opacity="1" stroke-width="1" stroke-linecap="square" stroke-linejoin="bevel" transform="matrix(1.99976,0,0,1.99976,-0.00559933,179.979)"
font-family="Ubuntu" font-size="11" font-weight="400" font-style="normal" 
>
</g>

<g fill="none" stroke="#000000" stroke-opacity="1" stroke-width="1" stroke-linecap="square" stroke-linejoin="bevel" transform="matrix(1.99976,0,0,1.99976,-0.00559933,179.979)"
font-family="Ubuntu" font-size="11" font-weight="400" font-style="normal" 
>
</g>

<g fill="none" stroke="#000000" stroke-opacity="1" stroke-width="1" stroke-linecap="square" stroke-linejoin="bevel" transform="matrix(1.99976,0,0,1.99976,-0.00559933,179.979)"
font-family="Ubuntu" font-size="11" font-weight="400" font-style="normal" 
>
</g>

<g fill="none" stroke="#000000" stroke-opacity="1" stroke-width="1" stroke-linecap="square" stroke-linejoin="round" transform="matrix(1.99976,0,0,1.99976,-0.00559933,179.979)"
font-family="Ubuntu" font-size="11" font-weight="400" font-style="normal" 
>
<path vector-effect="none" fill-rule="evenodd" d="M467.08,-34.329 C471.85,-33.156 476.75,-31.954 481.61,-30.759 "/>
</g>

<g fill="none" stroke="#000000" stroke-opacity="1" stroke-width="1" stroke-linecap="square" stroke-linejoin="bevel" transform="matrix(1.99976,0,0,1.99976,-0.00559933,179.979)"
font-family="Ubuntu" font-size="11" font-weight="400" font-style="normal" 
>
</g>

<g fill="none" stroke="#000000" stroke-opacity="1" stroke-width="1" stroke-linecap="square" stroke-linejoin="bevel" transform="matrix(1.99976,0,0,1.99976,-0.00559933,179.979)"
font-family="Ubuntu" font-size="11" font-weight="400" font-style="normal" 
>
</g>

<g fill="#000000" fill-opacity="1" stroke="#000000" stroke-opacity="1" stroke-width="1" stroke-linecap="square" stroke-linejoin="round" transform="matrix(1.99976,0,0,1.99976,-0.00559933,179.979)"
font-family="Ubuntu" font-size="11" font-weight="400" font-style="normal" 
>
<path vector-effect="none" fill-rule="evenodd" d="M481.61,-30.759 L480.76,-27.294 L491.51,-28.329 L482.461,-34.224 L481.61,-30.759"/>
</g>

<g fill="none" stroke="#000000" stroke-opacity="1" stroke-width="1" stroke-linecap="square" stroke-linejoin="bevel" transform="matrix(1.99976,0,0,1.99976,-0.00559933,179.979)"
font-family="Ubuntu" font-size="11" font-weight="400" font-style="normal" 
>
</g>

<g fill="none" stroke="#000000" stroke-opacity="1" stroke-width="1" stroke-linecap="square" stroke-linejoin="bevel" transform="matrix(1.99976,0,0,1.99976,-0.00559933,179.979)"
font-family="Ubuntu" font-size="11" font-weight="400" font-style="normal" 
>
</g>

<g fill="none" stroke="#000000" stroke-opacity="1" stroke-width="1" stroke-linecap="square" stroke-linejoin="bevel" transform="matrix(1.99976,0,0,1.99976,-0.00559933,179.979)"
font-family="Ubuntu" font-size="11" font-weight="400" font-style="normal" 
>
</g>

<g fill="none" stroke="#000000" stroke-opacity="1" stroke-width="1" stroke-linecap="square" stroke-linejoin="bevel" transform="matrix(1.99976,0,0,1.99976,-0.00559933,179.979)"
font-family="Ubuntu" font-size="11" font-weight="400" font-style="normal" 
>
</g>

<g fill="none" stroke="#000000" stroke-opacity="1" stroke-width="1" stroke-linecap="square" stroke-linejoin="round" transform="matrix(1.99976,0,0,1.99976,-0.00559933,179.979)"
font-family="Ubuntu" font-size="11" font-weight="400" font-style="normal" 
>
<path vector-effect="none" fill-rule="evenodd" d="M258.72,-18 C265.08,-18 271.16,-18 276.81,-18 "/>
</g>

<g fill="none" stroke="#000000" stroke-opacity="1" stroke-width="1" stroke-linecap="square" stroke-linejoin="bevel" transform="matrix(1.99976,0,0,1.99976,-0.00559933,179.979)"
font-family="Ubuntu" font-size="11" font-weight="400" font-style="normal" 
>
</g>

<g fill="none" stroke="#000000" stroke-opacity="1" stroke-width="1" stroke-linecap="square" stroke-linejoin="bevel" transform="matrix(1.99976,0,0,1.99976,-0.00559933,179.979)"
font-family="Ubuntu" font-size="11" font-weight="400" font-style="normal" 
>
</g>

<g fill="#000000" fill-opacity="1" stroke="#000000" stroke-opacity="1" stroke-width="1" stroke-linecap="square" stroke-linejoin="round" transform="matrix(1.99976,0,0,1.99976,-0.00559933,179.979)"
font-family="Ubuntu" font-size="11" font-weight="400" font-style="normal" 
>
<path vector-effect="none" fill-rule="evenodd" d="M276.81,-18 L276.81,-14.3985 L287.1,-18 L276.81,-21.6015 L276.81,-18"/>
</g>

<g fill="none" stroke="#000000" stroke-opacity="1" stroke-width="1" stroke-linecap="square" stroke-linejoin="bevel" transform="matrix(1.99976,0,0,1.99976,-0.00559933,179.979)"
font-family="Ubuntu" font-size="11" font-weight="400" font-style="normal" 
>
</g>

<g fill="none" stroke="#000000" stroke-opacity="1" stroke-width="1" stroke-linecap="square" stroke-linejoin="bevel" transform="matrix(1.99976,0,0,1.99976,-0.00559933,179.979)"
font-family="Ubuntu" font-size="11" font-weight="400" font-style="normal" 
>
</g>

<g fill="none" stroke="#000000" stroke-opacity="1" stroke-width="1" stroke-linecap="square" stroke-linejoin="bevel" transform="matrix(1.99976,0,0,1.99976,-0.00559933,179.979)"
font-family="Ubuntu" font-size="11" font-weight="400" font-style="normal" 
>
</g>

<g fill="none" stroke="#000000" stroke-opacity="1" stroke-width="1" stroke-linecap="square" stroke-linejoin="bevel" transform="matrix(1.99976,0,0,1.99976,-0.00559933,179.979)"
font-family="Ubuntu" font-size="11" font-weight="400" font-style="normal" 
>
</g>

<g fill="none" stroke="#000000" stroke-opacity="1" stroke-width="1" stroke-linecap="square" stroke-linejoin="round" transform="matrix(1.99976,0,0,1.99976,-0.00559933,179.979)"
font-family="Ubuntu" font-size="11" font-weight="400" font-style="normal" 
>
<path vector-effect="none" fill-rule="evenodd" d="M467.08,-55.671 C472.27,-56.947 477.61,-58.257 482.89,-59.555 "/>
</g>

<g fill="none" stroke="#000000" stroke-opacity="1" stroke-width="1" stroke-linecap="square" stroke-linejoin="bevel" transform="matrix(1.99976,0,0,1.99976,-0.00559933,179.979)"
font-family="Ubuntu" font-size="11" font-weight="400" font-style="normal" 
>
</g>

<g fill="none" stroke="#000000" stroke-opacity="1" stroke-width="1" stroke-linecap="square" stroke-linejoin="bevel" transform="matrix(1.99976,0,0,1.99976,-0.00559933,179.979)"
font-family="Ubuntu" font-size="11" font-weight="400" font-style="normal" 
>
</g>

<g fill="#000000" fill-opacity="1" stroke="#000000" stroke-opacity="1" stroke-width="1" stroke-linecap="square" stroke-linejoin="round" transform="matrix(1.99976,0,0,1.99976,-0.00559933,179.979)"
font-family="Ubuntu" font-size="11" font-weight="400" font-style="normal" 
>
<path vector-effect="none" fill-rule="evenodd" d="M482.89,-59.555 L483.753,-56.0375 L492.94,-62.022 L482.027,-63.0725 L482.89,-59.555"/>
</g>

<g fill="none" stroke="#000000" stroke-opacity="1" stroke-width="1" stroke-linecap="square" stroke-linejoin="bevel" transform="matrix(1.99976,0,0,1.99976,-0.00559933,179.979)"
font-family="Ubuntu" font-size="11" font-weight="400" font-style="normal" 
>
</g>

<g fill="none" stroke="#000000" stroke-opacity="1" stroke-width="1" stroke-linecap="square" stroke-linejoin="bevel" transform="matrix(1.99976,0,0,1.99976,-0.00559933,179.979)"
font-family="Ubuntu" font-size="11" font-weight="400" font-style="normal" 
>
</g>

<g fill="none" stroke="#000000" stroke-opacity="1" stroke-width="1" stroke-linecap="square" stroke-linejoin="bevel" transform="matrix(1.99976,0,0,1.99976,-0.00559933,179.979)"
font-family="Ubuntu" font-size="11" font-weight="400" font-style="normal" 
>
</g>

<g fill="none" stroke="#000000" stroke-opacity="1" stroke-width="1" stroke-linecap="square" stroke-linejoin="bevel" transform="matrix(1.99976,0,0,1.99976,-0.00559933,179.979)"
font-family="Ubuntu" font-size="11" font-weight="400" font-style="normal" 
>
</g>

<g fill="none" stroke="#000000" stroke-opacity="1" stroke-width="1" stroke-linecap="square" stroke-linejoin="round" transform="matrix(1.99976,0,0,1.99976,-0.00559933,179.979)"
font-family="Ubuntu" font-size="11" font-weight="400" font-style="normal" 
>
<path vector-effect="none" fill-rule="evenodd" d="M355.87,-61.715 C360.6,-60.547 365.47,-59.345 370.33,-58.147 "/>
</g>

<g fill="none" stroke="#000000" stroke-opacity="1" stroke-width="1" stroke-linecap="square" stroke-linejoin="bevel" transform="matrix(1.99976,0,0,1.99976,-0.00559933,179.979)"
font-family="Ubuntu" font-size="11" font-weight="400" font-style="normal" 
>
</g>

<g fill="none" stroke="#000000" stroke-opacity="1" stroke-width="1" stroke-linecap="square" stroke-linejoin="bevel" transform="matrix(1.99976,0,0,1.99976,-0.00559933,179.979)"
font-family="Ubuntu" font-size="11" font-weight="400" font-style="normal" 
>
</g>

<g fill="#000000" fill-opacity="1" stroke="#000000" stroke-opacity="1" stroke-width="1" stroke-linecap="square" stroke-linejoin="round" transform="matrix(1.99976,0,0,1.99976,-0.00559933,179.979)"
font-family="Ubuntu" font-size="11" font-weight="400" font-style="normal" 
>
<path vector-effect="none" fill-rule="evenodd" d="M370.33,-58.147 L369.475,-54.682 L380.23,-55.704 L371.185,-61.612 L370.33,-58.147"/>
</g>

<g fill="none" stroke="#000000" stroke-opacity="1" stroke-width="1" stroke-linecap="square" stroke-linejoin="bevel" transform="matrix(1.99976,0,0,1.99976,-0.00559933,179.979)"
font-family="Ubuntu" font-size="11" font-weight="400" font-style="normal" 
>
</g>

<g fill="none" stroke="#000000" stroke-opacity="1" stroke-width="1" stroke-linecap="square" stroke-linejoin="bevel" transform="matrix(1.99976,0,0,1.99976,-0.00559933,179.979)"
font-family="Ubuntu" font-size="11" font-weight="400" font-style="normal" 
>
</g>

<g fill="none" stroke="#000000" stroke-opacity="1" stroke-width="1" stroke-linecap="square" stroke-linejoin="bevel" transform="matrix(1.99976,0,0,1.99976,-0.00559933,179.979)"
font-family="Ubuntu" font-size="11" font-weight="400" font-style="normal" 
>
</g>

<g fill="none" stroke="#000000" stroke-opacity="1" stroke-width="1" stroke-linecap="square" stroke-linejoin="bevel" transform="matrix(1.99976,0,0,1.99976,-0.00559933,179.979)"
font-family="Ubuntu" font-size="11" font-weight="400" font-style="normal" 
>
</g>

<g fill="none" stroke="#000000" stroke-opacity="1" stroke-width="1" stroke-linecap="square" stroke-linejoin="round" transform="matrix(1.99976,0,0,1.99976,-0.00559933,179.979)"
font-family="Ubuntu" font-size="11" font-weight="400" font-style="normal" 
>
<path vector-effect="none" fill-rule="evenodd" d="M341.23,-24.674 C349.97,-26.829 359.98,-29.299 369.94,-31.758 "/>
</g>

<g fill="none" stroke="#000000" stroke-opacity="1" stroke-width="1" stroke-linecap="square" stroke-linejoin="bevel" transform="matrix(1.99976,0,0,1.99976,-0.00559933,179.979)"
font-family="Ubuntu" font-size="11" font-weight="400" font-style="normal" 
>
</g>

<g fill="none" stroke="#000000" stroke-opacity="1" stroke-width="1" stroke-linecap="square" stroke-linejoin="bevel" transform="matrix(1.99976,0,0,1.99976,-0.00559933,179.979)"
font-family="Ubuntu" font-size="11" font-weight="400" font-style="normal" 
>
</g>

<g fill="#000000" fill-opacity="1" stroke="#000000" stroke-opacity="1" stroke-width="1" stroke-linecap="square" stroke-linejoin="round" transform="matrix(1.99976,0,0,1.99976,-0.00559933,179.979)"
font-family="Ubuntu" font-size="11" font-weight="400" font-style="normal" 
>
<path vector-effect="none" fill-rule="evenodd" d="M369.94,-31.758 L370.795,-28.2895 L379.85,-34.2 L369.085,-35.2265 L369.94,-31.758"/>
</g>

<g fill="none" stroke="#000000" stroke-opacity="1" stroke-width="1" stroke-linecap="square" stroke-linejoin="bevel" transform="matrix(1.99976,0,0,1.99976,-0.00559933,179.979)"
font-family="Ubuntu" font-size="11" font-weight="400" font-style="normal" 
>
</g>

<g fill="none" stroke="#000000" stroke-opacity="1" stroke-width="1" stroke-linecap="square" stroke-linejoin="bevel" transform="matrix(1,0,0,1,0,0)"
font-family="Ubuntu" font-size="11" font-weight="400" font-style="normal" 
>
</g>
</g>
</svg>
